<svg version="1.1" id="Layer_1" xmlns="http://www.w3.org/2000/svg" xmlns:xlink="http://www.w3.org/1999/xlink" x="0px" y="0px"
	 width="100%" viewBox="0 0 2048 548" enable-background="new 0 0 2048 548" xml:space="preserve">
<path fill="#FEEEA1" opacity="1.000000" stroke="none" 
	d="
M1.000001,363.000000 
	C1.000000,361.933136 1.000000,360.866302 1.322854,359.245148 
	C4.862429,357.468872 7.985825,355.629608 11.311282,355.126801 
	C30.421825,352.237366 49.590076,349.732117 68.716835,346.946045 
	C74.979431,346.033875 81.176430,344.671326 87.403427,343.514740 
	C86.266464,342.076202 85.183601,341.707611 84.220085,341.137360 
	C83.158722,340.509247 82.207008,339.695892 81.207512,338.963257 
	C82.148247,337.971344 82.914795,336.623108 84.065453,336.060608 
	C86.580826,334.830963 89.254951,333.887634 91.928307,333.026245 
	C103.435638,329.318390 114.966118,325.682404 127.927895,321.562653 
	C123.224762,319.006836 120.045143,317.278931 115.420105,314.765533 
	C119.800812,312.358307 122.726532,310.750610 125.912354,308.999969 
	C124.469910,308.999969 123.272690,309.188141 122.156601,308.966949 
	C117.693321,308.082428 112.551010,309.739349 108.955498,305.379181 
	C108.506210,304.834351 107.036598,304.928040 106.076401,305.040039 
	C99.349075,305.824799 92.640854,306.782745 85.905815,307.487305 
	C83.312103,307.758667 80.616737,307.805511 78.060287,307.387848 
	C76.666992,307.160187 74.566536,305.874695 74.417633,304.832977 
	C74.246483,303.635620 75.577469,301.726562 76.785645,300.920715 
	C80.640717,298.349396 84.714180,296.098145 88.753868,293.812683 
	C94.060600,290.810425 97.098366,284.580444 103.832008,283.514679 
	C106.057823,283.162415 108.293549,282.064392 110.224113,280.835175 
	C113.539932,278.723938 117.978577,276.877045 119.441040,273.748322 
	C121.122864,270.150330 123.527847,269.055481 126.445908,268.411896 
	C139.832443,265.459412 153.310822,262.921814 166.690765,259.941376 
	C178.944946,257.211731 191.115295,254.105682 203.322586,251.165482 
	C203.239395,250.795563 203.156219,250.425644 203.073029,250.055725 
	C196.650085,248.619370 190.227127,247.182999 183.804169,245.746643 
	C183.828491,245.266312 183.852798,244.785980 183.877121,244.305634 
	C196.378204,240.696472 208.895416,244.613098 221.836838,245.390152 
	C220.557739,243.888504 219.482086,242.625702 217.749939,240.592194 
	C230.619553,236.166046 243.738770,237.830292 255.932220,234.736801 
	C255.254517,233.190399 254.682510,231.885178 254.032303,230.401535 
	C255.791962,229.294586 257.303986,228.343399 259.440674,226.999268 
	C247.101440,226.999268 235.592041,227.348938 224.122101,226.828766 
	C219.474060,226.617996 213.433472,226.947815 212.643280,219.497910 
	C212.541901,218.541977 209.843872,217.399918 208.230484,217.168549 
	C205.452652,216.770172 202.571655,217.155823 199.754028,216.944565 
	C198.215149,216.829178 196.717499,216.164032 195.201248,215.746826 
	C195.240189,215.311630 195.279129,214.876450 195.318069,214.441254 
	C197.799225,213.635391 200.227219,212.529831 202.771271,212.078537 
	C211.226608,210.578644 219.852234,209.834900 228.161621,207.784332 
	C234.157852,206.304596 239.620270,203.921448 245.640350,207.770706 
	C247.181915,208.756378 249.883011,208.054306 252.039276,207.925171 
	C255.834518,207.697861 259.630737,207.405289 263.408081,206.977341 
	C270.792725,206.140732 278.212555,205.471313 285.529358,204.216705 
	C294.040894,202.757233 295.290588,200.828812 294.331055,192.512985 
	C294.208862,191.453735 293.601257,190.450470 292.998199,188.828720 
	C304.744263,185.355301 316.481506,188.208984 327.872772,186.832031 
	C339.103455,185.474503 350.201691,183.021469 361.750854,180.979630 
	C361.030792,180.495239 360.768799,180.164291 360.512756,180.168823 
	C343.065186,180.477707 325.599091,180.424164 308.177216,181.274933 
	C295.151154,181.911057 282.170532,183.610046 269.191742,185.036789 
	C259.749359,186.074768 250.042709,186.102890 241.510620,191.282578 
	C240.715988,191.764969 239.713684,192.365402 238.889572,192.261612 
	C234.732864,191.738113 230.609528,190.954453 226.458481,190.376999 
	C225.704590,190.272125 224.745483,190.500107 224.102936,190.916626 
	C218.558655,194.510574 213.908325,192.441772 209.282852,188.918839 
	C205.170364,185.786575 204.644974,181.251511 208.805115,178.196609 
	C214.419296,174.073929 220.825180,171.804443 228.048431,172.318359 
	C227.147751,174.633530 226.140076,176.692459 224.772690,179.486359 
	C231.446579,178.922226 236.782150,178.471222 241.914536,178.037384 
	C243.374252,176.029037 244.775787,174.100723 246.561340,172.145813 
	C251.280502,170.814148 256.365570,170.732880 257.715271,165.421753 
	C259.827881,165.856934 261.561249,166.213989 264.075592,166.731934 
	C260.417084,159.037720 262.255432,156.382034 269.746887,155.923843 
	C272.277771,155.769089 274.785797,154.816010 277.243195,154.035355 
	C278.856934,153.522705 280.301483,152.425278 281.928955,152.020782 
	C284.159851,151.466309 286.496765,151.348846 288.779968,150.991150 
	C290.776733,150.678345 292.762024,150.292404 294.752411,149.938766 
	C283.535675,148.921967 272.470398,148.943726 261.405518,148.887817 
	C260.317383,148.882324 259.209717,148.468811 258.148621,148.127960 
	C252.877258,146.434692 253.182953,141.464676 251.552673,136.290466 
	C261.625427,135.473236 271.462524,134.675125 281.299622,133.876999 
	C281.226685,133.553070 281.153748,133.229126 281.080811,132.905197 
	C279.049225,131.804337 277.017639,130.703476 274.986023,129.602600 
	C275.056549,128.843079 275.127045,128.083572 275.197540,127.324051 
	C285.093903,124.048859 294.990295,120.773666 304.886658,117.498474 
	C304.832611,117.047226 304.778595,116.595978 304.724579,116.144730 
	C274.355713,116.863678 243.986877,117.582626 213.672195,118.300293 
	C214.818863,112.228882 216.443817,111.031448 222.567841,112.115776 
	C223.865631,112.345573 225.094803,112.954964 226.391266,113.202835 
	C227.283951,113.373505 228.271515,113.377457 229.158905,113.186905 
	C232.259506,112.521103 235.299484,111.432755 238.428070,111.069206 
	C243.589981,110.469368 248.844513,110.611450 253.986404,109.905067 
	C267.646271,108.028488 281.266876,105.865791 294.903076,103.816895 
	C292.853210,103.001999 290.865417,102.877792 288.897308,103.022034 
	C275.524292,104.002144 262.145050,104.921356 248.789017,106.100105 
	C240.397095,106.840736 232.037231,107.959183 223.671753,108.980087 
	C215.830307,109.937057 208.008591,111.058128 200.163269,111.980156 
	C191.465561,113.002350 182.759491,113.971458 174.040741,114.789917 
	C168.221298,115.336212 162.373337,115.578888 155.509384,116.024178 
	C156.779099,114.059120 157.178207,112.601891 157.982407,112.326180 
	C166.382950,109.446251 174.677582,105.877434 183.331192,104.193855 
	C201.977844,100.566101 220.770737,97.589233 239.593292,94.995636 
	C257.269775,92.559967 275.058380,90.932121 292.803833,89.005745 
	C300.205597,88.202232 307.609802,87.321510 315.036835,86.871826 
	C328.491852,86.057167 341.581360,82.698730 355.249756,82.691216 
	C371.745483,82.682144 388.262360,80.603561 404.727875,78.989906 
	C418.206818,77.668938 431.613800,75.628860 445.072296,74.077972 
	C452.629852,73.207092 460.218231,72.530800 467.811249,72.077568 
	C470.737854,71.902878 473.797821,73.172554 476.654510,72.770767 
	C484.341217,71.689651 491.963562,70.126320 499.589233,68.640465 
	C526.203857,63.454662 552.781006,58.071018 579.428833,53.062847 
	C594.690552,50.194569 610.062683,47.914284 625.382874,45.355915 
	C645.923401,41.925774 666.440247,38.342556 687.023438,35.191505 
	C690.229370,34.700718 694.050842,35.490566 697.008423,36.902016 
	C699.869324,38.267345 701.982605,41.199230 704.424255,43.443020 
	C704.789917,43.132370 705.155518,42.821716 705.521118,42.511063 
	C705.418152,43.735706 705.315186,44.960346 705.201843,46.308487 
	C706.516418,45.932159 707.492493,45.652733 708.734253,45.297237 
	C707.142822,52.008026 701.029724,52.212761 696.754089,55.153988 
	C698.555664,55.746513 700.306946,56.131451 702.001892,55.959854 
	C718.289124,54.310917 734.558289,52.482571 750.849426,50.875523 
	C768.292847,49.154819 785.751648,47.587246 803.209534,46.017014 
	C808.819946,45.512390 814.457397,45.308208 820.067200,44.798157 
	C833.403259,43.585636 846.713196,42.038120 860.066162,41.076553 
	C870.161621,40.349556 880.315491,40.474434 890.428650,39.941826 
	C905.198669,39.163975 920.052795,35.765171 934.530579,41.865284 
	C935.389587,42.227234 936.511475,42.022007 937.508301,41.991390 
	C948.131897,41.665035 958.755005,41.321774 969.378052,40.977531 
	C969.876404,40.961384 970.372986,40.892406 970.870422,40.847881 
	C985.200012,39.565262 999.507019,37.673412 1013.864441,37.139305 
	C1036.800537,36.286053 1059.769531,36.172016 1082.725952,36.069080 
	C1094.681030,36.015472 1106.637573,36.844711 1118.596069,36.937244 
	C1139.008179,37.095200 1159.422363,36.992561 1179.835693,36.970356 
	C1180.636597,36.969482 1181.928345,36.920956 1182.160156,36.468620 
	C1184.003296,32.872044 1187.285278,34.016525 1190.068726,34.065178 
	C1193.697388,34.128601 1197.311890,34.762875 1200.942871,34.971973 
	C1218.978638,36.010605 1237.026001,36.865078 1255.053711,38.025650 
	C1273.225830,39.195526 1291.375854,40.709126 1309.543213,41.959576 
	C1325.408569,43.051586 1341.279175,44.090244 1357.157837,44.961578 
	C1371.897339,45.770393 1386.648926,46.373219 1401.398682,46.982246 
	C1418.810303,47.701176 1436.228516,48.263916 1453.638428,49.018665 
	C1466.390869,49.571507 1479.129028,50.469624 1491.883545,50.949345 
	C1505.500000,51.461491 1519.140259,51.411121 1532.748047,52.067078 
	C1547.964600,52.800594 1563.159058,54.011414 1578.358032,55.087799 
	C1596.190186,56.350677 1614.017456,57.684143 1631.845581,59.003414 
	C1641.092651,59.687687 1650.347900,60.290218 1659.580444,61.136566 
	C1676.375244,62.676155 1693.166016,64.275818 1709.939087,66.034340 
	C1720.288208,67.119362 1730.596313,68.588890 1740.932495,69.804237 
	C1750.483154,70.927185 1760.061035,71.829071 1769.598633,73.048508 
	C1774.763428,73.708855 1779.784058,75.775673 1785.119751,73.468094 
	C1785.905884,73.128136 1788.322021,74.709877 1788.735474,75.853706 
	C1789.184937,77.097893 1788.586548,79.235672 1787.654419,80.273216 
	C1787.086548,80.905167 1784.992920,80.345322 1783.641235,80.056442 
	C1780.873779,79.464935 1778.175171,78.508606 1775.391113,78.048859 
	C1772.308716,77.539848 1769.166138,77.362770 1766.042847,77.139572 
	C1760.538696,76.746246 1754.915283,75.547195 1749.543579,76.243164 
	C1733.533569,78.317421 1717.799805,75.890030 1701.975342,74.522156 
	C1696.943359,74.087189 1691.882446,73.881248 1686.831543,73.816612 
	C1684.289673,73.784088 1681.701050,74.729561 1679.201660,74.498291 
	C1668.175903,73.478096 1657.199097,71.600868 1646.158813,71.146202 
	C1631.684814,70.550133 1617.167480,71.022392 1602.669189,70.973663 
	C1600.695435,70.967033 1598.724731,70.587799 1596.749878,70.410156 
	C1585.574219,69.404846 1574.397949,68.408401 1563.221802,67.408943 
	C1563.174683,67.892883 1563.127563,68.376816 1563.080322,68.860756 
	C1566.790161,69.311897 1570.493896,69.824081 1574.211060,70.203079 
	C1586.872803,71.494041 1599.530396,72.838486 1612.207520,73.959419 
	C1618.976074,74.557907 1625.791870,74.606567 1632.568115,75.136299 
	C1648.070679,76.348198 1663.557739,77.758430 1679.059692,78.980583 
	C1689.131592,79.774651 1699.236450,80.202042 1709.283936,81.215340 
	C1711.348511,81.423553 1715.175659,80.711609 1714.988281,85.015488 
	C1715.005493,84.999077 1715.041992,84.968536 1714.605469,84.978577 
	C1707.432861,84.981392 1700.688599,85.165092 1693.964355,84.877892 
	C1691.063965,84.754005 1688.220703,83.185654 1685.324585,83.090454 
	C1677.370117,82.828995 1669.401367,83.009300 1661.438354,82.998077 
	C1645.069702,82.975006 1628.947388,78.833778 1612.387207,80.805077 
	C1603.245239,81.893318 1593.867310,80.964333 1584.596436,81.038795 
	C1583.178589,81.050186 1581.755981,81.532753 1580.351196,81.863785 
	C1576.407349,82.793266 1572.472168,84.537872 1568.532471,84.541214 
	C1560.943726,84.547653 1553.359741,83.464149 1545.761475,83.077034 
	C1543.327759,82.953041 1540.818848,84.028336 1538.405396,83.826187 
	C1516.319580,81.976303 1494.256714,79.847755 1472.166870,78.049904 
	C1460.441162,77.095573 1448.668335,76.737457 1436.929565,75.925163 
	C1419.259766,74.702461 1401.617676,72.887466 1383.929932,72.213966 
	C1376.888062,71.945824 1369.775757,74.229942 1362.658813,75.021889 
	C1356.233154,75.736885 1349.757446,76.001366 1343.303833,76.464508 
	C1345.826782,77.323944 1348.393433,77.756569 1350.978271,77.984261 
	C1359.552979,78.739578 1368.137207,79.385231 1376.711914,80.139008 
	C1391.046021,81.399055 1405.365601,82.840828 1419.710449,83.958130 
	C1431.108765,84.845924 1442.538940,85.317474 1453.949707,86.054939 
	C1473.782104,87.336700 1493.606201,88.750275 1513.442017,89.974724 
	C1526.515259,90.781715 1539.614136,91.192764 1552.678101,92.114960 
	C1557.584839,92.461319 1562.455688,93.608131 1567.288208,94.644615 
	C1574.158569,96.118156 1580.919189,98.194801 1587.839844,99.314156 
	C1593.047119,100.156403 1598.449097,99.704895 1603.734497,100.170067 
	C1617.074951,101.344131 1630.383789,102.898224 1643.733032,103.944397 
	C1655.793457,104.889572 1667.901245,105.219254 1679.969360,106.080925 
	C1696.475708,107.259468 1712.958984,108.759750 1729.463135,109.970047 
	C1736.905518,110.515800 1744.381104,110.595009 1751.830688,111.058533 
	C1772.164062,112.323685 1792.493896,113.644798 1812.820190,115.017845 
	C1821.739868,115.620369 1830.657593,116.298241 1839.554810,117.162773 
	C1842.519897,117.450874 1845.418091,118.426582 1848.346924,119.087959 
	C1848.322632,119.499458 1848.298340,119.910950 1848.274048,120.322449 
	C1847.069336,120.547646 1845.865845,120.960167 1844.659668,120.968094 
	C1835.911987,121.025612 1827.162354,121.104088 1818.416016,120.982208 
	C1799.291748,120.715729 1780.170044,120.205254 1761.045166,120.036522 
	C1742.114624,119.869514 1723.181519,120.000000 1705.151611,120.000000 
	C1704.990112,119.912666 1705.865723,120.385971 1707.756714,121.408081 
	C1704.234863,122.941345 1701.582764,124.096024 1698.299561,125.525452 
	C1705.020142,126.067558 1710.789062,126.709686 1716.575073,126.961418 
	C1727.359741,127.430618 1738.156250,127.621765 1748.944092,128.030258 
	C1754.572632,128.243408 1760.205933,128.538895 1765.809937,129.079575 
	C1767.684570,129.260468 1769.495972,130.263947 1771.298340,130.986160 
	C1773.661133,131.932892 1775.925415,133.625092 1778.339478,133.851562 
	C1785.598145,134.532516 1792.910156,134.637375 1800.199219,135.006210 
	C1806.491211,135.324600 1812.806274,135.453918 1819.062866,136.119720 
	C1824.359497,136.683350 1829.587158,137.895264 1836.268799,139.070679 
	C1828.585815,145.749893 1819.893799,144.605637 1812.192017,146.710388 
	C1820.104126,147.727448 1827.999756,148.399414 1835.886353,149.164948 
	C1848.721558,150.410843 1861.529663,152.407700 1874.388550,152.801544 
	C1886.791992,153.181458 1898.582764,156.216721 1910.495117,158.812683 
	C1925.653564,162.116013 1940.486572,166.919617 1956.246704,167.117065 
	C1962.042969,167.189697 1967.824341,168.452316 1973.612427,169.172150 
	C1973.659546,169.708084 1973.706787,170.244019 1973.753906,170.779953 
	C1971.661743,171.434235 1969.569458,172.088501 1968.569824,172.401108 
	C1968.839111,175.065781 1969.052979,177.182571 1969.287720,179.505402 
	C1988.234863,184.861176 2007.492065,190.304565 2026.749268,195.747971 
	C2026.730957,196.234436 2026.712524,196.720917 2026.694214,197.207397 
	C2024.222534,197.603424 2021.746826,197.976593 2019.279663,198.399811 
	C2012.356445,199.587433 2005.472656,201.149002 1998.501709,201.860580 
	C1994.453613,202.273788 1990.270874,201.135620 1986.142456,201.068604 
	C1982.923706,201.016373 1979.942627,201.945251 1978.406372,205.846786 
	C1987.516724,208.471527 1997.211914,208.361588 2005.598633,212.652863 
	C2005.542725,213.128952 2005.486816,213.605042 2005.430786,214.081131 
	C1993.647217,215.093414 1981.863525,216.105698 1970.079956,217.117981 
	C1970.071411,217.347916 1970.062866,217.577850 1970.054199,217.807785 
	C1983.482300,219.667572 1996.910400,221.527344 2010.338501,223.387115 
	C2010.343262,223.903275 2010.348145,224.419434 2010.353027,224.935593 
	C2002.471191,226.416367 1994.589355,227.897141 1986.707397,229.377930 
	C1987.212646,230.606842 1987.585205,230.897705 1987.987183,230.946304 
	C1999.303223,232.314301 2010.627441,233.616058 2021.933350,235.061768 
	C2023.246094,235.229630 2024.459717,236.173141 2025.719238,236.757050 
	C2025.120850,238.029266 2024.757080,239.511017 2023.859497,240.515976 
	C2022.923950,241.563477 2021.521118,242.738037 2020.240356,242.841888 
	C2013.482178,243.389908 2006.700317,243.681747 1999.921875,243.930832 
	C1996.115356,244.070709 1992.299438,243.956009 1988.487671,243.956009 
	C1988.342163,244.399567 1988.196533,244.843124 1988.050903,245.286697 
	C1989.082642,246.206497 1989.968140,247.460770 1991.171875,247.987381 
	C1996.024536,250.110367 2000.827637,252.634888 2005.925903,253.836777 
	C2012.807251,255.459015 2019.935059,256.063873 2026.973999,256.975708 
	C2030.057251,257.375092 2032.788696,258.017151 2033.927368,262.183350 
	C2031.943481,262.483765 2030.230835,263.009277 2028.537842,262.952484 
	C2021.910400,262.730042 2015.287964,262.348145 2008.666138,261.978760 
	C2002.046021,261.609528 1995.432007,261.116577 1988.809570,260.802399 
	C1981.851318,260.472198 1974.887207,260.205383 1967.923096,260.119873 
	C1966.663208,260.104401 1965.390991,261.097626 1964.124390,261.625183 
	C1964.088745,262.098114 1964.053101,262.571045 1964.017456,263.043945 
	C1966.163208,264.000732 1968.232544,265.525055 1970.466553,265.826050 
	C1991.592651,268.672119 2012.764282,271.184052 2033.877563,274.117310 
	C2037.941162,274.681824 2042.873779,273.770264 2046.364258,278.494537 
	C2044.039551,280.005798 2042.286133,281.597504 2040.225342,282.396423 
	C2035.086426,284.388611 2031.020996,286.663696 2034.293457,293.202820 
	C2034.604492,293.824341 2034.334961,294.736389 2034.334961,295.513550 
	C2034.791016,295.316376 2035.246948,295.119232 2035.703003,294.922058 
	C2036.751953,296.787354 2037.801025,298.652649 2038.849854,300.517975 
	C2036.778076,300.801666 2034.689819,301.408783 2032.637573,301.305267 
	C2027.517944,301.047058 2022.358521,300.789917 2017.321533,299.917908 
	C2012.809937,299.136902 2010.124390,301.411774 2009.039551,304.879578 
	C2008.458008,306.738678 2009.953369,309.665161 2011.269409,311.592438 
	C2012.850342,313.907684 2012.752075,315.171661 2010.155396,316.035339 
	C2008.757568,316.500305 2007.138550,317.219452 2005.837158,316.909454 
	C1996.433472,314.669250 1990.010742,322.062042 1980.674805,323.791901 
	C1985.960205,325.505157 1990.234009,326.365417 1994.014893,328.226715 
	C2001.596313,331.959015 2009.259399,334.656525 2017.887817,334.126465 
	C2020.118408,333.989441 2022.555664,334.645355 2024.640869,335.537994 
	C2026.272217,336.236450 2028.814697,338.115326 2028.639771,339.025208 
	C2028.292969,340.829376 2026.662109,343.219452 2025.011963,343.797455 
	C2017.520752,346.421661 2009.953979,348.501740 2001.724243,347.861938 
	C1986.268921,346.660339 1970.765747,346.072388 1955.282349,345.229248 
	C1955.234253,345.722595 1955.186279,346.215912 1955.138184,346.709229 
	C1964.484863,349.567657 1975.119019,348.037933 1983.861572,354.586395 
	C1982.188843,356.006287 1980.842529,357.148987 1978.976074,358.733246 
	C1980.461182,359.636108 1981.589722,360.476990 1982.840454,361.052216 
	C1986.004395,362.507263 1989.585083,363.361542 1992.292480,365.396210 
	C1994.086548,366.744537 1996.026978,371.312592 1995.565552,371.707275 
	C1991.908081,374.835022 1987.998413,378.645905 1983.571289,379.667053 
	C1976.892212,381.207672 1969.731567,380.666077 1962.775024,380.995209 
	C1961.278320,381.066071 1959.504150,380.565033 1958.324951,381.197876 
	C1950.813843,385.228760 1942.703369,383.480713 1934.825073,384.100403 
	C1930.706299,384.424347 1926.667969,385.773071 1922.593384,386.658936 
	C1922.556030,387.231323 1922.518799,387.803680 1922.481567,388.376038 
	C1927.404541,389.984314 1932.316284,391.628540 1937.253418,393.191803 
	C1943.552124,395.186035 1949.911377,396.999115 1956.151245,399.159912 
	C1957.567139,399.650208 1958.599121,401.248962 1959.378540,401.950928 
	C1954.908936,407.358673 1951.685669,412.854675 1944.183228,413.315186 
	C1937.948608,413.697906 1931.816895,415.759399 1925.639648,417.077240 
	C1925.542969,417.625122 1925.446289,418.173004 1925.349731,418.720886 
	C1928.019043,420.136658 1930.577393,421.852478 1933.385986,422.891724 
	C1936.833984,424.167450 1939.074341,425.573853 1937.285400,429.763000 
	C1936.677490,431.186951 1936.799316,432.922577 1936.719360,433.524567 
	C1933.860718,434.544495 1931.679810,435.322540 1929.476440,436.108643 
	C1931.317627,438.153015 1932.558350,439.530762 1933.799072,440.908508 
	C1932.136963,441.669800 1930.504761,442.506866 1928.807129,443.178680 
	C1923.109253,445.433685 1917.414429,447.702148 1911.658813,449.801819 
	C1910.045288,450.390503 1908.160645,450.854919 1906.515137,450.609161 
	C1903.093262,450.098083 1899.734863,449.124237 1896.374268,448.248993 
	C1891.193115,446.899658 1886.407837,446.982513 1881.847168,450.514618 
	C1880.454712,451.593201 1877.884888,451.526306 1875.894653,451.390533 
	C1869.006104,450.920624 1862.135620,450.189331 1855.258179,449.557526 
	C1855.183350,450.025513 1855.108521,450.493500 1855.033569,450.961456 
	C1859.794800,451.970001 1864.571045,452.914337 1869.305664,454.034943 
	C1870.407837,454.295807 1871.481567,455.022736 1872.364624,455.774536 
	C1873.458496,456.705933 1874.154297,458.487762 1875.345459,458.855865 
	C1880.538818,460.460754 1885.825684,461.788635 1891.124634,463.018524 
	C1895.864380,464.118622 1900.664429,464.958557 1904.455688,465.716797 
	C1904.073608,470.479370 1903.758057,474.412140 1903.330200,479.745392 
	C1895.280273,478.364899 1886.398560,476.945343 1877.559448,475.297028 
	C1868.594116,473.625153 1859.730347,471.026276 1849.089355,472.579559 
	C1857.416504,479.693665 1868.620483,477.513763 1875.369019,485.065491 
	C1871.016479,485.753479 1866.800293,485.720581 1862.585571,485.777496 
	C1861.577637,485.791077 1860.545654,486.009827 1859.574707,486.300903 
	C1858.083130,486.748108 1856.504028,488.007080 1855.191772,487.749756 
	C1850.494751,486.828583 1845.941528,485.179108 1841.246460,484.243774 
	C1834.774292,482.954407 1828.232544,481.999207 1821.701172,481.031372 
	C1818.817139,480.604034 1817.351074,481.823090 1818.068970,485.539276 
	C1839.904785,490.019073 1862.191528,492.848175 1883.621338,499.303009 
	C1883.558105,499.943695 1883.494751,500.584381 1883.431396,501.225067 
	C1875.590820,501.683044 1867.750122,502.141022 1858.680054,502.670807 
	C1861.643188,504.759247 1863.276611,505.910461 1864.909912,507.061676 
	C1864.789551,507.473022 1864.669189,507.884369 1864.548828,508.295715 
	C1859.414917,508.295715 1854.281006,508.295715 1848.561279,508.295715 
	C1850.988159,509.467621 1852.790283,510.337891 1854.592529,511.208160 
	C1854.549438,511.824036 1854.506470,512.439880 1854.463501,513.055786 
	C1843.402832,513.903442 1832.345581,514.801270 1821.278320,515.551636 
	C1819.327637,515.683899 1817.322388,514.942871 1815.364136,515.041016 
	C1800.968384,515.762390 1786.595947,515.148193 1772.117065,516.412537 
	C1757.690918,517.672180 1742.859009,514.194641 1728.197998,512.871338 
	C1706.124756,510.879059 1684.043091,508.981720 1661.970093,506.988525 
	C1650.930298,505.991638 1639.900391,504.884125 1628.868286,503.804688 
	C1616.035522,502.548981 1603.215332,501.150604 1590.369629,500.046692 
	C1583.268311,499.436432 1576.119141,499.407593 1569.003784,498.932648 
	C1550.169556,497.675507 1531.348755,496.212524 1512.509155,495.045166 
	C1503.067749,494.460144 1493.598267,494.320160 1484.140137,494.015656 
	C1462.892822,493.331543 1441.648560,492.467346 1420.395630,492.088593 
	C1410.280884,491.908325 1400.138184,492.491302 1390.033936,493.134949 
	C1387.602417,493.289825 1385.275513,495.064117 1382.896851,496.085419 
	C1382.491333,496.259552 1382.067993,496.392395 1381.391724,496.639954 
	C1381.256470,495.357239 1381.144043,494.291534 1381.023926,493.153595 
	C1378.846558,493.034302 1376.839111,493.075836 1374.878540,492.792297 
	C1361.807007,490.901855 1348.797241,488.381470 1335.665527,487.169556 
	C1323.624390,486.058319 1311.455200,486.334625 1299.342407,485.999481 
	C1298.343384,485.971863 1297.335571,486.019135 1296.346802,485.903534 
	C1291.114258,485.291901 1285.892456,484.141907 1280.656250,484.079895 
	C1240.369019,483.602600 1200.079224,483.116974 1159.790283,483.109283 
	C1144.209106,483.106323 1128.629150,484.369690 1113.045410,484.975739 
	C1108.885132,485.137512 1104.507935,484.199554 1100.597412,485.200714 
	C1095.357178,486.542328 1087.325562,483.665802 1086.288452,493.012512 
	C1086.230957,493.531464 1085.468384,494.052338 1084.931763,494.425568 
	C1080.174316,497.734589 1075.221558,499.715698 1069.144409,498.291656 
	C1065.152832,497.356293 1060.928345,497.022461 1056.815430,497.068024 
	C1042.689819,497.224457 1028.567017,497.653259 1014.443787,498.003967 
	C1001.652893,498.321564 988.855286,498.500854 976.075134,499.067932 
	C967.148987,499.463959 957.894714,499.105957 949.411682,501.397247 
	C934.079529,505.538544 918.406311,503.740448 903.037537,505.986176 
	C892.921326,507.464355 882.790161,508.843536 872.654053,510.178375 
	C871.328369,510.352966 869.887451,510.178558 868.581177,509.846375 
	C866.790710,509.391022 865.058105,508.035919 863.334778,508.093018 
	C847.581909,508.615021 831.831421,509.267303 816.092529,510.111115 
	C812.593018,510.298737 809.142090,511.390350 805.668823,512.065796 
	C805.708252,512.546997 805.747742,513.028198 805.787170,513.509399 
	C807.665161,514.006836 809.684692,514.225281 811.378784,515.085022 
	C812.885071,515.849426 814.030579,517.324707 815.335327,518.486267 
	C815.046936,519.041931 814.758606,519.597656 814.470215,520.153381 
	C809.810730,518.515991 805.455872,518.756226 800.634705,519.645996 
	C790.926392,521.437683 780.874878,521.500488 770.950195,521.954224 
	C759.335327,522.485229 747.696228,522.500366 736.083740,523.067383 
	C727.823059,523.470703 719.587219,524.397034 711.343323,525.124390 
	C693.054260,526.737976 674.752991,528.230225 656.484009,530.047119 
	C642.995422,531.388550 629.379822,532.473206 617.486633,540.158203 
	C616.132080,541.033447 614.469604,541.780334 612.893677,541.911377 
	C595.573547,543.351624 578.230347,544.524658 560.920227,546.070312 
	C554.576843,546.636719 548.304688,548.000122 542.000000,549.000000 
	C539.958252,549.000000 537.916504,549.000000 535.436157,548.615112 
	C534.623169,547.007568 534.592712,545.475159 533.817139,544.613586 
	C529.520630,539.840881 525.003235,535.252502 526.478088,527.958313 
	C526.792969,526.400940 527.156189,524.842407 527.308044,523.266174 
	C527.449219,521.800354 527.338135,520.310242 527.338135,518.375122 
	C525.719360,519.538269 524.844177,520.167175 523.968994,520.796021 
	C524.746582,519.828796 525.524170,518.861572 526.301819,517.894348 
	C524.664368,516.574280 523.026917,515.254211 521.389465,513.934082 
	C521.914307,514.136841 524.575500,512.747864 527.206238,511.303406 
	C532.206299,508.557983 536.904907,504.322144 542.231018,503.284943 
	C559.603088,499.901978 577.040283,497.091400 593.087524,488.710968 
	C592.916626,482.217468 592.955261,482.141327 599.878967,480.985168 
	C602.320374,480.577454 604.799011,480.392975 607.241028,479.987854 
	C616.528564,478.447113 625.808105,476.857788 635.090576,475.286621 
	C635.045654,474.717621 635.000793,474.148621 634.955872,473.579590 
	C632.880859,473.386414 630.802490,472.995514 628.731445,473.031403 
	C612.773438,473.307648 596.815857,473.627228 580.860596,474.031097 
	C577.396301,474.118744 573.935181,474.908569 570.484558,474.832794 
	C564.543823,474.702362 557.978699,475.630615 552.822021,473.429108 
	C544.573181,469.907471 536.380493,469.877350 527.942566,470.034027 
	C514.983765,470.274689 502.027832,470.670990 489.070618,470.998993 
	C487.572083,471.036926 486.059509,470.940521 484.576538,471.109253 
	C470.455017,472.715759 456.319550,474.220825 442.227356,476.056091 
	C433.237366,477.226898 424.270752,478.687469 415.375244,480.433838 
	C409.596039,481.568420 403.961395,483.442871 398.266571,485.002594 
	C395.746460,485.692871 393.238922,486.429077 390.723419,487.136414 
	C387.314301,488.095001 383.950317,489.297974 380.483063,489.949066 
	C372.538727,491.440857 364.152466,491.597412 356.695923,494.337769 
	C350.994537,496.433014 345.526978,497.565063 339.623230,498.172913 
	C336.202057,498.525177 332.948486,500.460175 329.607727,501.649750 
	C325.447510,503.131104 321.375885,505.144531 317.084503,505.907990 
	C310.594025,507.062653 303.947784,507.346252 297.365936,507.981110 
	C292.183929,508.480957 286.977539,509.504730 281.820862,509.302673 
	C274.647400,509.021576 267.345245,506.483429 260.400421,507.345673 
	C252.173859,508.367004 241.393600,505.154022 236.882309,517.527039 
	C247.814972,513.797607 258.352295,509.397095 270.505249,515.712646 
	C268.230988,516.974548 266.410187,518.736145 264.418060,518.957947 
	C256.543793,519.834290 248.614990,520.685059 240.707916,520.671448 
	C232.855804,520.657959 224.993881,519.715332 217.157471,518.960144 
	C208.108398,518.088135 199.027679,517.314880 190.062973,515.865967 
	C182.107727,514.580200 174.260239,512.554321 166.442123,510.554321 
	C164.844452,510.145599 163.588898,508.399445 162.175629,507.269775 
	C163.871307,506.188080 165.447540,504.747711 167.298218,504.131256 
	C168.961136,503.577362 170.947449,504.086304 172.750565,503.835205 
	C174.509445,503.590302 176.216965,502.976532 178.620331,502.348816 
	C177.089050,501.674683 176.369370,501.182037 175.586258,501.040649 
	C168.611618,499.781525 161.659698,498.314697 154.635376,497.431610 
	C143.812256,496.070953 132.956650,494.506989 122.079063,494.164276 
	C109.933105,493.781616 97.740150,494.508728 85.581055,495.052490 
	C76.661537,495.451385 67.755623,496.242310 58.858307,497.025146 
	C49.637848,497.836395 40.444885,498.967224 31.221025,499.730164 
	C25.246166,500.224365 19.058199,501.080322 13.480116,495.680023 
	C15.960415,494.210968 17.759624,492.505127 19.842600,492.021515 
	C29.312206,489.822937 38.870300,488.008636 48.379055,485.974274 
	C53.476112,484.883759 58.537716,483.627502 63.615326,482.446075 
	C63.553871,481.867340 63.492416,481.288605 63.430962,480.709900 
	C61.015858,479.907104 58.600758,479.104340 56.173634,478.297577 
	C57.691208,474.773987 57.691208,474.773987 60.613125,476.963440 
	C62.680077,474.093414 64.749786,471.219513 67.576859,467.294037 
	C56.623577,467.294037 46.216976,467.294037 35.810371,467.294037 
	C42.655811,457.782349 52.984619,458.419586 62.054840,456.112610 
	C71.112053,453.808990 80.406578,452.438416 89.597069,450.658813 
	C89.524643,450.319763 89.452209,449.980713 89.379784,449.641663 
	C87.312302,448.873535 85.244812,448.105408 81.923935,446.871613 
	C88.083839,443.174103 93.138985,440.139740 99.561668,436.284515 
	C89.554420,435.447449 80.894958,434.801422 72.252388,433.977997 
	C63.698769,433.163086 55.283909,437.740814 46.209576,435.127686 
	C47.355270,433.291626 48.111240,432.080109 49.271893,430.220062 
	C46.582405,429.925598 44.506786,429.698364 41.701550,429.391235 
	C43.694244,427.673553 45.091805,426.468872 47.107113,424.731720 
	C44.353645,423.979218 42.342251,423.717560 40.622307,422.866760 
	C39.287296,422.206360 38.316139,420.810425 37.183266,419.741394 
	C38.224525,418.842743 39.145348,417.699707 40.339481,417.111267 
	C41.641884,416.469452 43.180325,416.154846 44.645615,416.019409 
	C56.009228,414.969025 67.381569,414.013550 78.747856,412.991394 
	C83.237854,412.587616 87.719345,412.089111 93.765694,411.475220 
	C90.599442,409.624939 88.865540,408.418030 86.977097,407.545685 
	C81.997154,405.245148 81.389961,403.187256 85.808891,399.903656 
	C89.808525,396.931641 94.557251,394.967743 98.737495,392.689148 
	C94.954643,385.592194 88.517746,386.525024 81.793358,388.013489 
	C71.484657,390.295410 61.166424,392.562622 50.785290,394.472137 
	C47.548653,395.067474 44.095585,394.486206 40.741592,394.443542 
	C40.684574,393.566589 40.627560,392.689667 40.570541,391.812714 
	C53.047287,389.175323 65.524033,386.537933 78.394302,383.817352 
	C68.976921,380.923218 59.969944,379.627258 50.696140,381.053955 
	C41.601814,382.453003 32.488556,383.728973 23.383604,385.058929 
	C23.088299,384.305817 22.792995,383.552673 22.497690,382.799530 
	C25.948767,380.341339 29.399845,377.883118 33.739326,374.792114 
	C26.391399,375.806091 19.943987,376.695831 12.190420,377.765778 
	C15.246143,374.369659 17.368685,372.010651 19.153107,370.027435 
	C12.885083,367.600952 6.942543,365.300476 1.000001,363.000000 
M316.333923,154.010452 
	C315.429047,154.903839 314.524139,155.797226 313.619263,156.690598 
	C313.912323,157.079788 314.205353,157.468979 314.498413,157.858170 
	C299.267853,161.820343 284.037292,165.782516 268.806732,169.744690 
	C268.948303,170.291611 269.089874,170.838531 269.231445,171.385452 
	C287.657562,169.236496 306.238556,167.780334 323.217804,159.158813 
	C317.461090,157.486526 317.461090,157.486526 317.901489,153.989014 
	C327.053864,154.069504 336.166901,153.844894 346.018555,150.741806 
	C335.122467,147.979019 325.897614,149.663239 316.333923,154.010452 
M837.006836,496.964294 
	C847.636353,496.571136 858.265930,496.177979 868.895447,495.784851 
	C868.871216,495.467957 868.847046,495.151062 868.822815,494.834167 
	C856.338867,494.834167 843.854980,494.834167 831.371033,494.834167 
	C831.378235,495.111206 831.385437,495.388245 831.392639,495.665283 
	C832.974304,496.066772 834.555908,496.468231 837.006836,496.964294 
M712.406860,520.000000 
	C714.162781,520.000000 715.918701,520.000000 717.674622,520.000000 
	C717.636230,519.577881 717.597839,519.155762 717.559448,518.733643 
	C710.110657,519.224365 702.661926,519.715027 695.213196,520.205750 
	C695.238586,520.573242 695.263977,520.940674 695.289368,521.308105 
	C700.695679,520.872253 706.101990,520.436340 712.406860,520.000000 
z"/>
<path fill="#FFFFFF" opacity="1.000000" stroke="none" 
	d="
M542.468628,549.000000 
	C548.304688,548.000122 554.576843,546.636719 560.920227,546.070312 
	C578.230347,544.524658 595.573547,543.351624 612.893677,541.911377 
	C614.469604,541.780334 616.132080,541.033447 617.486633,540.158203 
	C629.379822,532.473206 642.995422,531.388550 656.484009,530.047119 
	C674.752991,528.230225 693.054260,526.737976 711.343323,525.124390 
	C719.587219,524.397034 727.823059,523.470703 736.083740,523.067383 
	C747.696228,522.500366 759.335327,522.485229 770.950195,521.954224 
	C780.874878,521.500488 790.926392,521.437683 800.634705,519.645996 
	C805.455872,518.756226 809.810730,518.515991 814.470215,520.153381 
	C814.758606,519.597656 815.046936,519.041931 815.335327,518.486267 
	C814.030579,517.324707 812.885071,515.849426 811.378784,515.085022 
	C809.684692,514.225281 807.665161,514.006836 805.787170,513.509399 
	C805.747742,513.028198 805.708252,512.546997 805.668823,512.065796 
	C809.142090,511.390350 812.593018,510.298737 816.092529,510.111115 
	C831.831421,509.267303 847.581909,508.615021 863.334778,508.093018 
	C865.058105,508.035919 866.790710,509.391022 868.581177,509.846375 
	C869.887451,510.178558 871.328369,510.352966 872.654053,510.178375 
	C882.790161,508.843536 892.921326,507.464355 903.037537,505.986176 
	C918.406311,503.740448 934.079529,505.538544 949.411682,501.397247 
	C957.894714,499.105957 967.148987,499.463959 976.075134,499.067932 
	C988.855286,498.500854 1001.652893,498.321564 1014.443787,498.003967 
	C1028.567017,497.653259 1042.689819,497.224457 1056.815430,497.068024 
	C1060.928345,497.022461 1065.152832,497.356293 1069.144409,498.291656 
	C1075.221558,499.715698 1080.174316,497.734589 1084.931763,494.425568 
	C1085.468384,494.052338 1086.230957,493.531464 1086.288452,493.012512 
	C1087.325562,483.665802 1095.357178,486.542328 1100.597412,485.200714 
	C1104.507935,484.199554 1108.885132,485.137512 1113.045410,484.975739 
	C1128.629150,484.369690 1144.209106,483.106323 1159.790283,483.109283 
	C1200.079224,483.116974 1240.369019,483.602600 1280.656250,484.079895 
	C1285.892456,484.141907 1291.114258,485.291901 1296.346802,485.903534 
	C1297.335571,486.019135 1298.343384,485.971863 1299.342407,485.999481 
	C1311.455200,486.334625 1323.624390,486.058319 1335.665527,487.169556 
	C1348.797241,488.381470 1361.807007,490.901855 1374.878540,492.792297 
	C1376.839111,493.075836 1378.846558,493.034302 1381.023926,493.153595 
	C1381.144043,494.291534 1381.256470,495.357239 1381.391724,496.639954 
	C1382.067993,496.392395 1382.491333,496.259552 1382.896851,496.085419 
	C1385.275513,495.064117 1387.602417,493.289825 1390.033936,493.134949 
	C1400.138184,492.491302 1410.280884,491.908325 1420.395630,492.088593 
	C1441.648560,492.467346 1462.892822,493.331543 1484.140137,494.015656 
	C1493.598267,494.320160 1503.067749,494.460144 1512.509155,495.045166 
	C1531.348755,496.212524 1550.169556,497.675507 1569.003784,498.932648 
	C1576.119141,499.407593 1583.268311,499.436432 1590.369629,500.046692 
	C1603.215332,501.150604 1616.035522,502.548981 1628.868286,503.804688 
	C1639.900391,504.884125 1650.930298,505.991638 1661.970093,506.988525 
	C1684.043091,508.981720 1706.124756,510.879059 1728.197998,512.871338 
	C1742.859009,514.194641 1757.690918,517.672180 1772.117065,516.412537 
	C1786.595947,515.148193 1800.968384,515.762390 1815.364136,515.041016 
	C1817.322388,514.942871 1819.327637,515.683899 1821.278320,515.551636 
	C1832.345581,514.801270 1843.402832,513.903442 1854.463501,513.055786 
	C1854.506470,512.439880 1854.549438,511.824036 1854.592529,511.208160 
	C1852.790283,510.337891 1850.988159,509.467621 1848.561279,508.295715 
	C1854.281006,508.295715 1859.414917,508.295715 1864.548828,508.295715 
	C1864.669189,507.884369 1864.789551,507.473022 1864.909912,507.061676 
	C1863.276611,505.910461 1861.643188,504.759247 1858.680054,502.670807 
	C1867.750122,502.141022 1875.590820,501.683044 1883.431396,501.225067 
	C1883.494751,500.584381 1883.558105,499.943695 1883.621338,499.303009 
	C1862.191528,492.848175 1839.904785,490.019073 1818.068970,485.539276 
	C1817.351074,481.823090 1818.817139,480.604034 1821.701172,481.031372 
	C1828.232544,481.999207 1834.774292,482.954407 1841.246460,484.243774 
	C1845.941528,485.179108 1850.494751,486.828583 1855.191772,487.749756 
	C1856.504028,488.007080 1858.083130,486.748108 1859.574707,486.300903 
	C1860.545654,486.009827 1861.577637,485.791077 1862.585571,485.777496 
	C1866.800293,485.720581 1871.016479,485.753479 1875.369019,485.065491 
	C1868.620483,477.513763 1857.416504,479.693665 1849.089355,472.579559 
	C1859.730347,471.026276 1868.594116,473.625153 1877.559448,475.297028 
	C1886.398560,476.945343 1895.280273,478.364899 1903.330200,479.745392 
	C1903.758057,474.412140 1904.073608,470.479370 1904.455688,465.716797 
	C1900.664429,464.958557 1895.864380,464.118622 1891.124634,463.018524 
	C1885.825684,461.788635 1880.538818,460.460754 1875.345459,458.855865 
	C1874.154297,458.487762 1873.458496,456.705933 1872.364624,455.774536 
	C1871.481567,455.022736 1870.407837,454.295807 1869.305664,454.034943 
	C1864.571045,452.914337 1859.794800,451.970001 1855.033569,450.961456 
	C1855.108521,450.493500 1855.183350,450.025513 1855.258179,449.557526 
	C1862.135620,450.189331 1869.006104,450.920624 1875.894653,451.390533 
	C1877.884888,451.526306 1880.454712,451.593201 1881.847168,450.514618 
	C1886.407837,446.982513 1891.193115,446.899658 1896.374268,448.248993 
	C1899.734863,449.124237 1903.093262,450.098083 1906.515137,450.609161 
	C1908.160645,450.854919 1910.045288,450.390503 1911.658813,449.801819 
	C1917.414429,447.702148 1923.109253,445.433685 1928.807129,443.178680 
	C1930.504761,442.506866 1932.136963,441.669800 1933.799072,440.908508 
	C1932.558350,439.530762 1931.317627,438.153015 1929.476440,436.108643 
	C1931.679810,435.322540 1933.860718,434.544495 1936.719360,433.524567 
	C1936.799316,432.922577 1936.677490,431.186951 1937.285400,429.763000 
	C1939.074341,425.573853 1936.833984,424.167450 1933.385986,422.891724 
	C1930.577393,421.852478 1928.019043,420.136658 1925.349731,418.720886 
	C1925.446289,418.173004 1925.542969,417.625122 1925.639648,417.077240 
	C1931.816895,415.759399 1937.948608,413.697906 1944.183228,413.315186 
	C1951.685669,412.854675 1954.908936,407.358673 1959.378540,401.950928 
	C1958.599121,401.248962 1957.567139,399.650208 1956.151245,399.159912 
	C1949.911377,396.999115 1943.552124,395.186035 1937.253418,393.191803 
	C1932.316284,391.628540 1927.404541,389.984314 1922.481567,388.376038 
	C1922.518799,387.803680 1922.556030,387.231323 1922.593384,386.658936 
	C1926.667969,385.773071 1930.706299,384.424347 1934.825073,384.100403 
	C1942.703369,383.480713 1950.813843,385.228760 1958.324951,381.197876 
	C1959.504150,380.565033 1961.278320,381.066071 1962.775024,380.995209 
	C1969.731567,380.666077 1976.892212,381.207672 1983.571289,379.667053 
	C1987.998413,378.645905 1991.908081,374.835022 1995.565552,371.707275 
	C1996.026978,371.312592 1994.086548,366.744537 1992.292480,365.396210 
	C1989.585083,363.361542 1986.004395,362.507263 1982.840454,361.052216 
	C1981.589722,360.476990 1980.461182,359.636108 1978.976074,358.733246 
	C1980.842529,357.148987 1982.188843,356.006287 1983.861572,354.586395 
	C1975.119019,348.037933 1964.484863,349.567657 1955.138184,346.709229 
	C1955.186279,346.215912 1955.234253,345.722595 1955.282349,345.229248 
	C1970.765747,346.072388 1986.268921,346.660339 2001.724243,347.861938 
	C2009.953979,348.501740 2017.520752,346.421661 2025.011963,343.797455 
	C2026.662109,343.219452 2028.292969,340.829376 2028.639771,339.025208 
	C2028.814697,338.115326 2026.272217,336.236450 2024.640869,335.537994 
	C2022.555664,334.645355 2020.118408,333.989441 2017.887817,334.126465 
	C2009.259399,334.656525 2001.596313,331.959015 1994.014893,328.226715 
	C1990.234009,326.365417 1985.960205,325.505157 1980.674805,323.791901 
	C1990.010742,322.062042 1996.433472,314.669250 2005.837158,316.909454 
	C2007.138550,317.219452 2008.757568,316.500305 2010.155396,316.035339 
	C2012.752075,315.171661 2012.850342,313.907684 2011.269409,311.592438 
	C2009.953369,309.665161 2008.458008,306.738678 2009.039551,304.879578 
	C2010.124390,301.411774 2012.809937,299.136902 2017.321533,299.917908 
	C2022.358521,300.789917 2027.517944,301.047058 2032.637573,301.305267 
	C2034.689819,301.408783 2036.778076,300.801666 2038.849854,300.517975 
	C2037.801025,298.652649 2036.751953,296.787354 2035.703003,294.922058 
	C2035.246948,295.119232 2034.791016,295.316376 2034.334961,295.513550 
	C2034.334961,294.736389 2034.604492,293.824341 2034.293457,293.202820 
	C2031.020996,286.663696 2035.086426,284.388611 2040.225342,282.396423 
	C2042.286133,281.597504 2044.039551,280.005798 2046.364258,278.494537 
	C2042.873779,273.770264 2037.941162,274.681824 2033.877563,274.117310 
	C2012.764282,271.184052 1991.592651,268.672119 1970.466553,265.826050 
	C1968.232544,265.525055 1966.163208,264.000732 1964.017456,263.043945 
	C1964.053101,262.571045 1964.088745,262.098114 1964.124390,261.625183 
	C1965.390991,261.097626 1966.663208,260.104401 1967.923096,260.119873 
	C1974.887207,260.205383 1981.851318,260.472198 1988.809570,260.802399 
	C1995.432007,261.116577 2002.046021,261.609528 2008.666138,261.978760 
	C2015.287964,262.348145 2021.910400,262.730042 2028.537842,262.952484 
	C2030.230835,263.009277 2031.943481,262.483765 2033.927368,262.183350 
	C2032.788696,258.017151 2030.057251,257.375092 2026.973999,256.975708 
	C2019.935059,256.063873 2012.807251,255.459015 2005.925903,253.836777 
	C2000.827637,252.634888 1996.024536,250.110367 1991.171875,247.987381 
	C1989.968140,247.460770 1989.082642,246.206497 1988.050903,245.286697 
	C1988.196533,244.843124 1988.342163,244.399567 1988.487671,243.956009 
	C1992.299438,243.956009 1996.115356,244.070709 1999.921875,243.930832 
	C2006.700317,243.681747 2013.482178,243.389908 2020.240356,242.841888 
	C2021.521118,242.738037 2022.923950,241.563477 2023.859497,240.515976 
	C2024.757080,239.511017 2025.120850,238.029266 2025.719238,236.757050 
	C2024.459717,236.173141 2023.246094,235.229630 2021.933350,235.061768 
	C2010.627441,233.616058 1999.303223,232.314301 1987.987183,230.946304 
	C1987.585205,230.897705 1987.212646,230.606842 1986.707397,229.377930 
	C1994.589355,227.897141 2002.471191,226.416367 2010.353027,224.935593 
	C2010.348145,224.419434 2010.343262,223.903275 2010.338501,223.387115 
	C1996.910400,221.527344 1983.482300,219.667572 1970.054199,217.807785 
	C1970.062866,217.577850 1970.071411,217.347916 1970.079956,217.117981 
	C1981.863525,216.105698 1993.647217,215.093414 2005.430786,214.081131 
	C2005.486816,213.605042 2005.542725,213.128952 2005.598633,212.652863 
	C1997.211914,208.361588 1987.516724,208.471527 1978.406372,205.846786 
	C1979.942627,201.945251 1982.923706,201.016373 1986.142456,201.068604 
	C1990.270874,201.135620 1994.453613,202.273788 1998.501709,201.860580 
	C2005.472656,201.149002 2012.356445,199.587433 2019.279663,198.399811 
	C2021.746826,197.976593 2024.222534,197.603424 2026.694214,197.207397 
	C2026.712524,196.720917 2026.730957,196.234436 2026.749268,195.747971 
	C2007.492065,190.304565 1988.234863,184.861176 1969.287720,179.505402 
	C1969.052979,177.182571 1968.839111,175.065781 1968.569824,172.401108 
	C1969.569458,172.088501 1971.661743,171.434235 1973.753906,170.779953 
	C1973.706787,170.244019 1973.659546,169.708084 1973.612427,169.172150 
	C1967.824341,168.452316 1962.042969,167.189697 1956.246704,167.117065 
	C1940.486572,166.919617 1925.653564,162.116013 1910.495117,158.812683 
	C1898.582764,156.216721 1886.791992,153.181458 1874.388550,152.801544 
	C1861.529663,152.407700 1848.721558,150.410843 1835.886353,149.164948 
	C1827.999756,148.399414 1820.104126,147.727448 1812.192017,146.710388 
	C1819.893799,144.605637 1828.585815,145.749893 1836.268799,139.070679 
	C1829.587158,137.895264 1824.359497,136.683350 1819.062866,136.119720 
	C1812.806274,135.453918 1806.491211,135.324600 1800.199219,135.006210 
	C1792.910156,134.637375 1785.598145,134.532516 1778.339478,133.851562 
	C1775.925415,133.625092 1773.661133,131.932892 1771.298340,130.986160 
	C1769.495972,130.263947 1767.684570,129.260468 1765.809937,129.079575 
	C1760.205933,128.538895 1754.572632,128.243408 1748.944092,128.030258 
	C1738.156250,127.621765 1727.359741,127.430618 1716.575073,126.961418 
	C1710.789062,126.709686 1705.020142,126.067558 1698.299561,125.525452 
	C1701.582764,124.096024 1704.234863,122.941345 1707.756714,121.408081 
	C1705.865723,120.385971 1704.990112,119.912666 1705.151611,120.000000 
	C1723.181519,120.000000 1742.114624,119.869514 1761.045166,120.036522 
	C1780.170044,120.205254 1799.291748,120.715729 1818.416016,120.982208 
	C1827.162354,121.104088 1835.911987,121.025612 1844.659668,120.968094 
	C1845.865845,120.960167 1847.069336,120.547646 1848.274048,120.322449 
	C1848.298340,119.910950 1848.322632,119.499458 1848.346924,119.087959 
	C1845.418091,118.426582 1842.519897,117.450874 1839.554810,117.162773 
	C1830.657593,116.298241 1821.739868,115.620369 1812.820190,115.017845 
	C1792.493896,113.644798 1772.164062,112.323685 1751.830688,111.058533 
	C1744.381104,110.595009 1736.905518,110.515800 1729.463135,109.970047 
	C1712.958984,108.759750 1696.475708,107.259468 1679.969360,106.080925 
	C1667.901245,105.219254 1655.793457,104.889572 1643.733032,103.944397 
	C1630.383789,102.898224 1617.074951,101.344131 1603.734497,100.170067 
	C1598.449097,99.704895 1593.047119,100.156403 1587.839844,99.314156 
	C1580.919189,98.194801 1574.158569,96.118156 1567.288208,94.644615 
	C1562.455688,93.608131 1557.584839,92.461319 1552.678101,92.114960 
	C1539.614136,91.192764 1526.515259,90.781715 1513.442017,89.974724 
	C1493.606201,88.750275 1473.782104,87.336700 1453.949707,86.054939 
	C1442.538940,85.317474 1431.108765,84.845924 1419.710449,83.958130 
	C1405.365601,82.840828 1391.046021,81.399055 1376.711914,80.139008 
	C1368.137207,79.385231 1359.552979,78.739578 1350.978271,77.984261 
	C1348.393433,77.756569 1345.826782,77.323944 1343.303833,76.464508 
	C1349.757446,76.001366 1356.233154,75.736885 1362.658813,75.021889 
	C1369.775757,74.229942 1376.888062,71.945824 1383.929932,72.213966 
	C1401.617676,72.887466 1419.259766,74.702461 1436.929565,75.925163 
	C1448.668335,76.737457 1460.441162,77.095573 1472.166870,78.049904 
	C1494.256714,79.847755 1516.319580,81.976303 1538.405396,83.826187 
	C1540.818848,84.028336 1543.327759,82.953041 1545.761475,83.077034 
	C1553.359741,83.464149 1560.943726,84.547653 1568.532471,84.541214 
	C1572.472168,84.537872 1576.407349,82.793266 1580.351196,81.863785 
	C1581.755981,81.532753 1583.178589,81.050186 1584.596436,81.038795 
	C1593.867310,80.964333 1603.245239,81.893318 1612.387207,80.805077 
	C1628.947388,78.833778 1645.069702,82.975006 1661.438354,82.998077 
	C1669.401367,83.009300 1677.370117,82.828995 1685.324585,83.090454 
	C1688.220703,83.185654 1691.063965,84.754005 1693.964355,84.877892 
	C1700.688599,85.165092 1707.432861,84.981392 1714.507812,85.301254 
	C1715.149536,86.063385 1715.419312,86.878502 1715.760376,86.909416 
	C1727.612061,87.983887 1739.463623,89.072296 1751.329468,89.972923 
	C1765.680786,91.062180 1780.038208,92.106377 1794.408936,92.870255 
	C1797.163452,93.016663 1799.991821,91.774338 1802.786133,91.172699 
	C1802.733643,90.588760 1802.681030,90.004829 1802.628418,89.420898 
	C1801.453491,88.960449 1800.304688,88.191261 1799.099243,88.088783 
	C1790.034424,87.318085 1780.957520,86.690765 1771.886230,85.994713 
	C1763.708618,85.367226 1755.486328,85.061111 1747.368286,83.978722 
	C1736.463135,82.524696 1725.725342,83.338959 1714.970947,85.031891 
	C1715.175659,80.711609 1711.348511,81.423553 1709.283936,81.215340 
	C1699.236450,80.202042 1689.131592,79.774651 1679.059692,78.980583 
	C1663.557739,77.758430 1648.070679,76.348198 1632.568115,75.136299 
	C1625.791870,74.606567 1618.976074,74.557907 1612.207520,73.959419 
	C1599.530396,72.838486 1586.872803,71.494041 1574.211060,70.203079 
	C1570.493896,69.824081 1566.790161,69.311897 1563.080322,68.860756 
	C1563.127563,68.376816 1563.174683,67.892883 1563.221802,67.408943 
	C1574.397949,68.408401 1585.574219,69.404846 1596.749878,70.410156 
	C1598.724731,70.587799 1600.695435,70.967033 1602.669189,70.973663 
	C1617.167480,71.022392 1631.684814,70.550133 1646.158813,71.146202 
	C1657.199097,71.600868 1668.175903,73.478096 1679.201660,74.498291 
	C1681.701050,74.729561 1684.289673,73.784088 1686.831543,73.816612 
	C1691.882446,73.881248 1696.943359,74.087189 1701.975342,74.522156 
	C1717.799805,75.890030 1733.533569,78.317421 1749.543579,76.243164 
	C1754.915283,75.547195 1760.538696,76.746246 1766.042847,77.139572 
	C1769.166138,77.362770 1772.308716,77.539848 1775.391113,78.048859 
	C1778.175171,78.508606 1780.873779,79.464935 1783.641235,80.056442 
	C1784.992920,80.345322 1787.086548,80.905167 1787.654419,80.273216 
	C1788.586548,79.235672 1789.184937,77.097893 1788.735474,75.853706 
	C1788.322021,74.709877 1785.905884,73.128136 1785.119751,73.468094 
	C1779.784058,75.775673 1774.763428,73.708855 1769.598633,73.048508 
	C1760.061035,71.829071 1750.483154,70.927185 1740.932495,69.804237 
	C1730.596313,68.588890 1720.288208,67.119362 1709.939087,66.034340 
	C1693.166016,64.275818 1676.375244,62.676155 1659.580444,61.136566 
	C1650.347900,60.290218 1641.092651,59.687687 1631.845581,59.003414 
	C1614.017456,57.684143 1596.190186,56.350677 1578.358032,55.087799 
	C1563.159058,54.011414 1547.964600,52.800594 1532.748047,52.067078 
	C1519.140259,51.411121 1505.500000,51.461491 1491.883545,50.949345 
	C1479.129028,50.469624 1466.390869,49.571507 1453.638428,49.018665 
	C1436.228516,48.263916 1418.810303,47.701176 1401.398682,46.982246 
	C1386.648926,46.373219 1371.897339,45.770393 1357.157837,44.961578 
	C1341.279175,44.090244 1325.408569,43.051586 1309.543213,41.959576 
	C1291.375854,40.709126 1273.225830,39.195526 1255.053711,38.025650 
	C1237.026001,36.865078 1218.978638,36.010605 1200.942871,34.971973 
	C1197.311890,34.762875 1193.697388,34.128601 1190.068726,34.065178 
	C1187.285278,34.016525 1184.003296,32.872044 1182.160156,36.468620 
	C1181.928345,36.920956 1180.636597,36.969482 1179.835693,36.970356 
	C1159.422363,36.992561 1139.008179,37.095200 1118.596069,36.937244 
	C1106.637573,36.844711 1094.681030,36.015472 1082.725952,36.069080 
	C1059.769531,36.172016 1036.800537,36.286053 1013.864441,37.139305 
	C999.507019,37.673412 985.200012,39.565262 970.870422,40.847881 
	C970.372986,40.892406 969.876404,40.961384 969.378052,40.977531 
	C958.755005,41.321774 948.131897,41.665035 937.508301,41.991390 
	C936.511475,42.022007 935.389587,42.227234 934.530579,41.865284 
	C920.052795,35.765171 905.198669,39.163975 890.428650,39.941826 
	C880.315491,40.474434 870.161621,40.349556 860.066162,41.076553 
	C846.713196,42.038120 833.403259,43.585636 820.067200,44.798157 
	C814.457397,45.308208 808.819946,45.512390 803.209534,46.017014 
	C785.751648,47.587246 768.292847,49.154819 750.849426,50.875523 
	C734.558289,52.482571 718.289124,54.310917 702.001892,55.959854 
	C700.306946,56.131451 698.555664,55.746513 696.754089,55.153988 
	C701.029724,52.212761 707.142822,52.008026 708.734253,45.297237 
	C707.492493,45.652733 706.516418,45.932159 705.201843,46.308487 
	C705.315186,44.960346 705.418152,43.735706 705.521118,42.511063 
	C705.155518,42.821716 704.789917,43.132370 704.424255,43.443020 
	C701.982605,41.199230 699.869324,38.267345 697.008423,36.902016 
	C694.050842,35.490566 690.229370,34.700718 687.023438,35.191505 
	C666.440247,38.342556 645.923401,41.925774 625.382874,45.355915 
	C610.062683,47.914284 594.690552,50.194569 579.428833,53.062847 
	C552.781006,58.071018 526.203857,63.454662 499.589233,68.640465 
	C491.963562,70.126320 484.341217,71.689651 476.654510,72.770767 
	C473.797821,73.172554 470.737854,71.902878 467.811249,72.077568 
	C460.218231,72.530800 452.629852,73.207092 445.072296,74.077972 
	C431.613800,75.628860 418.206818,77.668938 404.727875,78.989906 
	C388.262360,80.603561 371.745483,82.682144 355.249756,82.691216 
	C341.581360,82.698730 328.491852,86.057167 315.036835,86.871826 
	C307.609802,87.321510 300.205597,88.202232 292.803833,89.005745 
	C275.058380,90.932121 257.269775,92.559967 239.593292,94.995636 
	C220.770737,97.589233 201.977844,100.566101 183.331192,104.193855 
	C174.677582,105.877434 166.382950,109.446251 157.982407,112.326180 
	C157.178207,112.601891 156.779099,114.059120 155.509384,116.024178 
	C162.373337,115.578888 168.221298,115.336212 174.040741,114.789917 
	C182.759491,113.971458 191.465561,113.002350 200.163269,111.980156 
	C208.008591,111.058128 215.830307,109.937057 223.671753,108.980087 
	C232.037231,107.959183 240.397095,106.840736 248.789017,106.100105 
	C262.145050,104.921356 275.524292,104.002144 288.897308,103.022034 
	C290.865417,102.877792 292.853210,103.001999 294.903076,103.816895 
	C281.266876,105.865791 267.646271,108.028488 253.986404,109.905067 
	C248.844513,110.611450 243.589981,110.469368 238.428070,111.069206 
	C235.299484,111.432755 232.259506,112.521103 229.158905,113.186905 
	C228.271515,113.377457 227.283951,113.373505 226.391266,113.202835 
	C225.094803,112.954964 223.865631,112.345573 222.567841,112.115776 
	C216.443817,111.031448 214.818863,112.228882 213.672195,118.300293 
	C243.986877,117.582626 274.355713,116.863678 304.724579,116.144730 
	C304.778595,116.595978 304.832611,117.047226 304.886658,117.498474 
	C294.990295,120.773666 285.093903,124.048859 275.197540,127.324051 
	C275.127045,128.083572 275.056549,128.843079 274.986023,129.602600 
	C277.017639,130.703476 279.049225,131.804337 281.080811,132.905197 
	C281.153748,133.229126 281.226685,133.553070 281.299622,133.876999 
	C271.462524,134.675125 261.625427,135.473236 251.552673,136.290466 
	C253.182953,141.464676 252.877258,146.434692 258.148621,148.127960 
	C259.209717,148.468811 260.317383,148.882324 261.405518,148.887817 
	C272.470398,148.943726 283.535675,148.921967 294.752411,149.938766 
	C292.762024,150.292404 290.776733,150.678345 288.779968,150.991150 
	C286.496765,151.348846 284.159851,151.466309 281.928955,152.020782 
	C280.301483,152.425278 278.856934,153.522705 277.243195,154.035355 
	C274.785797,154.816010 272.277771,155.769089 269.746887,155.923843 
	C262.255432,156.382034 260.417084,159.037720 264.075592,166.731934 
	C261.561249,166.213989 259.827881,165.856934 257.715271,165.421753 
	C256.365570,170.732880 251.280502,170.814148 246.505630,172.090820 
	C246.065903,172.062408 245.959839,171.947235 246.098724,171.646317 
	C245.325104,170.188660 244.412598,169.031921 243.553604,167.943024 
	C243.553604,166.788757 243.553604,165.262299 243.553604,163.735825 
	C242.032242,163.827057 240.360352,163.544922 239.020081,164.085297 
	C235.992416,165.305939 233.029984,166.772430 230.250565,168.479996 
	C229.252228,169.093338 228.855377,170.685699 228.123108,171.888687 
	C228.062210,171.946121 227.941452,172.062119 227.941452,172.062119 
	C220.825180,171.804443 214.419296,174.073929 208.805115,178.196609 
	C204.644974,181.251511 205.170364,185.786575 209.282852,188.918839 
	C213.908325,192.441772 218.558655,194.510574 224.102936,190.916626 
	C224.745483,190.500107 225.704590,190.272125 226.458481,190.376999 
	C230.609528,190.954453 234.732864,191.738113 238.889572,192.261612 
	C239.713684,192.365402 240.715988,191.764969 241.510620,191.282578 
	C250.042709,186.102890 259.749359,186.074768 269.191742,185.036789 
	C282.170532,183.610046 295.151154,181.911057 308.177216,181.274933 
	C325.599091,180.424164 343.065186,180.477707 360.512756,180.168823 
	C360.768799,180.164291 361.030792,180.495239 361.750854,180.979630 
	C350.201691,183.021469 339.103455,185.474503 327.872772,186.832031 
	C316.481506,188.208984 304.744263,185.355301 292.998199,188.828720 
	C293.601257,190.450470 294.208862,191.453735 294.331055,192.512985 
	C295.290588,200.828812 294.040894,202.757233 285.529358,204.216705 
	C278.212555,205.471313 270.792725,206.140732 263.408081,206.977341 
	C259.630737,207.405289 255.834518,207.697861 252.039276,207.925171 
	C249.883011,208.054306 247.181915,208.756378 245.640350,207.770706 
	C239.620270,203.921448 234.157852,206.304596 228.161621,207.784332 
	C219.852234,209.834900 211.226608,210.578644 202.771271,212.078537 
	C200.227219,212.529831 197.799225,213.635391 195.318069,214.441254 
	C195.279129,214.876450 195.240189,215.311630 195.201248,215.746826 
	C196.717499,216.164032 198.215149,216.829178 199.754028,216.944565 
	C202.571655,217.155823 205.452652,216.770172 208.230484,217.168549 
	C209.843872,217.399918 212.541901,218.541977 212.643280,219.497910 
	C213.433472,226.947815 219.474060,226.617996 224.122101,226.828766 
	C235.592041,227.348938 247.101440,226.999268 259.440674,226.999268 
	C257.303986,228.343399 255.791962,229.294586 254.032303,230.401535 
	C254.682510,231.885178 255.254517,233.190399 255.932220,234.736801 
	C243.738770,237.830292 230.619553,236.166046 217.749939,240.592194 
	C219.482086,242.625702 220.557739,243.888504 221.836838,245.390152 
	C208.895416,244.613098 196.378204,240.696472 183.877121,244.305634 
	C183.852798,244.785980 183.828491,245.266312 183.804169,245.746643 
	C190.227127,247.182999 196.650085,248.619370 203.073029,250.055725 
	C203.156219,250.425644 203.239395,250.795563 203.322586,251.165482 
	C191.115295,254.105682 178.944946,257.211731 166.690765,259.941376 
	C153.310822,262.921814 139.832443,265.459412 126.445908,268.411896 
	C123.527847,269.055481 121.122864,270.150330 119.441040,273.748322 
	C117.978577,276.877045 113.539932,278.723938 110.224113,280.835175 
	C108.293549,282.064392 106.057823,283.162415 103.832008,283.514679 
	C97.098366,284.580444 94.060600,290.810425 88.753868,293.812683 
	C84.714180,296.098145 80.640717,298.349396 76.785645,300.920715 
	C75.577469,301.726562 74.246483,303.635620 74.417633,304.832977 
	C74.566536,305.874695 76.666992,307.160187 78.060287,307.387848 
	C80.616737,307.805511 83.312103,307.758667 85.905815,307.487305 
	C92.640854,306.782745 99.349075,305.824799 106.076401,305.040039 
	C107.036598,304.928040 108.506210,304.834351 108.955498,305.379181 
	C112.551010,309.739349 117.693321,308.082428 122.156601,308.966949 
	C123.272690,309.188141 124.469910,308.999969 125.912354,308.999969 
	C122.726532,310.750610 119.800812,312.358307 115.420105,314.765533 
	C120.045143,317.278931 123.224762,319.006836 127.927895,321.562653 
	C114.966118,325.682404 103.435638,329.318390 91.928307,333.026245 
	C89.254951,333.887634 86.580826,334.830963 84.065453,336.060608 
	C82.914795,336.623108 82.148247,337.971344 81.207512,338.963257 
	C82.207008,339.695892 83.158722,340.509247 84.220085,341.137360 
	C85.183601,341.707611 86.266464,342.076202 87.403427,343.514740 
	C81.176430,344.671326 74.979431,346.033875 68.716835,346.946045 
	C49.590076,349.732117 30.421825,352.237366 11.311282,355.126801 
	C7.985825,355.629608 4.862429,357.468872 1.322854,358.845428 
	C1.000000,239.704361 1.000000,120.408714 1.000000,1.000000 
	C342.687561,1.000000 684.375183,1.000000 1026.466431,1.360796 
	C1024.367798,2.828813 1021.691223,3.666800 1019.422852,5.135387 
	C1017.842468,6.158624 1016.822021,8.046803 1015.457031,9.660198 
	C1020.410950,10.909700 1024.136719,12.373550 1027.958008,12.692943 
	C1034.001221,13.198041 1040.109619,12.887373 1046.188599,13.008400 
	C1061.470703,13.312646 1076.750366,13.771626 1092.033569,13.976074 
	C1122.637939,14.385480 1153.244385,14.626600 1183.848877,15.029736 
	C1190.940308,15.123150 1198.027344,15.580470 1205.115723,15.883979 
	C1221.485962,16.584909 1237.849976,17.531925 1254.227417,17.928261 
	C1268.481934,18.273220 1282.754517,18.167225 1297.012573,17.908272 
	C1301.918701,17.819166 1306.795410,16.196083 1311.703125,16.090023 
	C1325.419189,15.793612 1338.837402,19.527323 1352.732422,18.665434 
	C1363.916138,17.971724 1375.232544,19.628256 1386.498291,19.882988 
	C1389.085083,19.941479 1391.705078,18.528755 1394.309937,17.793098 
	C1394.209839,16.927002 1394.109863,16.060904 1394.009766,15.194807 
	C1388.239136,15.093506 1382.463013,15.111763 1376.699829,14.848632 
	C1372.894409,14.674886 1369.059448,13.225840 1365.411255,15.586604 
	C1365.217896,15.711712 1364.636475,15.156425 1364.204956,15.007417 
	C1361.263794,13.991986 1358.372559,12.420988 1355.355835,12.117619 
	C1348.273315,11.405373 1341.126343,11.355830 1334.010986,10.944112 
	C1311.693115,9.652719 1289.383667,8.199345 1267.058228,7.062066 
	C1258.879883,6.645450 1250.401123,8.238640 1242.522583,6.636830 
	C1226.093384,3.296614 1209.531006,3.932696 1193.026123,3.082960 
	C1178.764648,2.348722 1164.465576,2.351014 1150.185059,1.957269 
	C1149.115479,1.927778 1148.061279,1.332359 1147.000000,1.000010 
	C1447.622314,1.000000 1748.244629,1.000000 2048.933594,1.000000 
	C2048.933594,183.595383 2048.933594,366.190796 2048.933594,549.000000 
	C1546.979126,549.000000 1044.958252,549.000000 542.468628,549.000000 
M929.591919,11.760422 
	C925.514160,11.173616 921.412781,9.955050 917.362549,10.105963 
	C896.329895,10.889645 875.305847,11.940079 854.288269,13.073361 
	C845.536072,13.545286 836.793762,14.317943 828.071350,15.196163 
	C816.734558,16.337622 805.417725,17.684120 794.100403,19.011686 
	C785.898804,19.973774 777.717468,21.110174 769.512024,22.035400 
	C767.048523,22.313183 764.530151,22.060850 762.044434,22.193726 
	C756.366760,22.497248 749.657104,21.146908 745.310181,23.734013 
	C740.956482,26.325146 736.774719,28.031677 732.064880,29.252193 
	C730.971802,29.535450 729.979248,30.807920 729.272461,31.850327 
	C727.975891,33.762897 726.926392,35.842991 725.686462,38.005722 
	C728.636292,40.757477 746.578369,38.143463 751.195435,33.572678 
	C754.731567,38.914410 759.201660,35.670280 763.649231,35.114887 
	C771.933472,34.080387 780.309265,33.799271 788.614441,32.903053 
	C792.037231,32.533684 795.784180,32.098190 798.669189,30.445410 
	C804.934937,26.855799 811.573730,29.000748 817.983459,28.254850 
	C825.468750,27.383783 833.345825,28.406490 840.490051,26.499172 
	C847.341553,24.669983 853.760132,25.145714 860.442871,25.641388 
	C867.457458,26.161682 874.478088,26.870262 881.501038,26.932528 
	C888.449341,26.994135 895.405273,26.059250 902.355530,26.089279 
	C911.807678,26.130114 921.256042,26.778894 930.709778,26.924147 
	C933.064697,26.960327 935.433899,26.064821 937.796570,25.597548 
	C937.756104,24.839651 937.715637,24.081755 937.675171,23.323860 
	C932.209900,22.702211 926.744568,22.080563 920.173767,21.333170 
	C926.670837,20.617867 932.267151,20.220222 934.821167,13.429502 
	C933.328186,12.923689 931.852905,12.423857 929.591919,11.760422 
M991.367981,3.086454 
	C985.481995,3.660773 979.579529,4.107620 973.717590,4.867440 
	C971.096985,5.207114 968.557922,6.175092 966.714539,6.663705 
	C969.007324,9.934821 970.627258,12.246029 972.172119,14.450171 
	C975.294250,14.295841 978.762146,14.726311 981.819031,13.800142 
	C984.741516,12.914740 987.236450,10.618188 989.941101,8.928328 
	C993.708130,13.592608 1000.605103,14.656665 1006.235291,11.435506 
	C1005.796387,9.505736 1005.457397,7.624560 1004.932373,5.796854 
	C1004.121216,2.973468 1002.633972,1.901578 999.419861,2.901687 
	C997.192932,3.594645 994.579834,3.046662 991.367981,3.086454 
M1430.901245,18.816357 
	C1427.819458,18.321501 1424.753174,17.589933 1421.652222,17.385914 
	C1416.696411,17.059858 1411.715820,17.129990 1406.749512,16.935284 
	C1405.026245,16.867723 1403.314209,16.510893 1401.596924,16.286182 
	C1401.589355,15.928452 1401.581665,15.570720 1401.574097,15.212989 
	C1399.150879,16.491215 1396.727783,17.769442 1393.917725,19.251759 
	C1395.083740,19.888563 1395.898193,20.667461 1396.785645,20.762232 
	C1401.531738,21.268986 1406.299438,21.568357 1411.053223,22.008873 
	C1417.627441,22.618067 1424.184570,23.570496 1430.770752,23.835028 
	C1435.185791,24.012356 1440.112793,25.379168 1443.818115,21.761837 
	C1443.802002,21.199165 1443.785767,20.636496 1443.769531,20.073824 
	C1439.779297,19.697477 1435.789062,19.321129 1430.901245,18.816357 
M948.444824,25.997765 
	C954.038452,25.956820 959.764709,25.143730 965.191223,26.075703 
	C971.581970,27.173292 977.071960,24.244778 983.035767,23.761496 
	C983.196533,23.748465 983.294250,22.956837 983.551270,22.090443 
	C969.330933,22.090443 955.378479,22.090443 941.426086,22.090443 
	C941.329224,22.832457 941.232422,23.574471 941.135620,24.316483 
	C943.285217,24.877481 945.434875,25.438478 948.444824,25.997765 
M256.000793,194.841370 
	C248.255371,195.504715 240.509949,196.168060 232.764511,196.831406 
	C232.651413,197.582993 232.538315,198.334564 232.425201,199.086151 
	C235.466202,199.949768 238.646561,201.860214 241.521591,201.477402 
	C249.594635,200.402527 257.541809,198.382416 265.538635,196.735107 
	C265.611450,196.308426 265.684296,195.881729 265.757111,195.455032 
	C262.781860,195.160568 259.806580,194.866104 256.000793,194.841370 
M1456.647339,21.140137 
	C1453.557251,21.541986 1449.888794,19.449844 1447.154297,23.131523 
	C1453.303467,24.709183 1454.975342,24.409397 1456.647339,21.140137 
z"/>
<path fill="#FFFFFF" opacity="1.000000" stroke="none" 
	d="
M1.000001,363.468658 
	C6.942543,365.300476 12.885083,367.600952 19.153107,370.027435 
	C17.368685,372.010651 15.246143,374.369659 12.190420,377.765778 
	C19.943987,376.695831 26.391399,375.806091 33.739326,374.792114 
	C29.399845,377.883118 25.948767,380.341339 22.497690,382.799530 
	C22.792995,383.552673 23.088299,384.305817 23.383604,385.058929 
	C32.488556,383.728973 41.601814,382.453003 50.696140,381.053955 
	C59.969944,379.627258 68.976921,380.923218 78.394302,383.817352 
	C65.524033,386.537933 53.047287,389.175323 40.570541,391.812714 
	C40.627560,392.689667 40.684574,393.566589 40.741592,394.443542 
	C44.095585,394.486206 47.548653,395.067474 50.785290,394.472137 
	C61.166424,392.562622 71.484657,390.295410 81.793358,388.013489 
	C88.517746,386.525024 94.954643,385.592194 98.737495,392.689148 
	C94.557251,394.967743 89.808525,396.931641 85.808891,399.903656 
	C81.389961,403.187256 81.997154,405.245148 86.977097,407.545685 
	C88.865540,408.418030 90.599442,409.624939 93.765694,411.475220 
	C87.719345,412.089111 83.237854,412.587616 78.747856,412.991394 
	C67.381569,414.013550 56.009228,414.969025 44.645615,416.019409 
	C43.180325,416.154846 41.641884,416.469452 40.339481,417.111267 
	C39.145348,417.699707 38.224525,418.842743 37.183266,419.741394 
	C38.316139,420.810425 39.287296,422.206360 40.622307,422.866760 
	C42.342251,423.717560 44.353645,423.979218 47.107113,424.731720 
	C45.091805,426.468872 43.694244,427.673553 41.701550,429.391235 
	C44.506786,429.698364 46.582405,429.925598 49.271893,430.220062 
	C48.111240,432.080109 47.355270,433.291626 46.209576,435.127686 
	C55.283909,437.740814 63.698769,433.163086 72.252388,433.977997 
	C80.894958,434.801422 89.554420,435.447449 99.561668,436.284515 
	C93.138985,440.139740 88.083839,443.174103 81.923935,446.871613 
	C85.244812,448.105408 87.312302,448.873535 89.379784,449.641663 
	C89.452209,449.980713 89.524643,450.319763 89.597069,450.658813 
	C80.406578,452.438416 71.112053,453.808990 62.054840,456.112610 
	C52.984619,458.419586 42.655811,457.782349 35.810371,467.294037 
	C46.216976,467.294037 56.623577,467.294037 67.576859,467.294037 
	C64.749786,471.219513 62.680077,474.093414 60.613125,476.963440 
	C57.691208,474.773987 57.691208,474.773987 56.173634,478.297577 
	C58.600758,479.104340 61.015858,479.907104 63.430962,480.709900 
	C63.492416,481.288605 63.553871,481.867340 63.615326,482.446075 
	C58.537716,483.627502 53.476112,484.883759 48.379055,485.974274 
	C38.870300,488.008636 29.312206,489.822937 19.842600,492.021515 
	C17.759624,492.505127 15.960415,494.210968 13.480116,495.680023 
	C19.058199,501.080322 25.246166,500.224365 31.221025,499.730164 
	C40.444885,498.967224 49.637848,497.836395 58.858307,497.025146 
	C67.755623,496.242310 76.661537,495.451385 85.581055,495.052490 
	C97.740150,494.508728 109.933105,493.781616 122.079063,494.164276 
	C132.956650,494.506989 143.812256,496.070953 154.635376,497.431610 
	C161.659698,498.314697 168.611618,499.781525 175.586258,501.040649 
	C176.369370,501.182037 177.089050,501.674683 178.620331,502.348816 
	C176.216965,502.976532 174.509445,503.590302 172.750565,503.835205 
	C170.947449,504.086304 168.961136,503.577362 167.298218,504.131256 
	C165.447540,504.747711 163.871307,506.188080 162.175629,507.269775 
	C163.588898,508.399445 164.844452,510.145599 166.442123,510.554321 
	C174.260239,512.554321 182.107727,514.580200 190.062973,515.865967 
	C199.027679,517.314880 208.108398,518.088135 217.157471,518.960144 
	C224.993881,519.715332 232.855804,520.657959 240.707916,520.671448 
	C248.614990,520.685059 256.543793,519.834290 264.418060,518.957947 
	C266.410187,518.736145 268.230988,516.974548 270.505249,515.712646 
	C258.352295,509.397095 247.814972,513.797607 236.882309,517.527039 
	C241.393600,505.154022 252.173859,508.367004 260.400421,507.345673 
	C267.345245,506.483429 274.647400,509.021576 281.820862,509.302673 
	C286.977539,509.504730 292.183929,508.480957 297.365936,507.981110 
	C303.947784,507.346252 310.594025,507.062653 317.084503,505.907990 
	C321.375885,505.144531 325.447510,503.131104 329.607727,501.649750 
	C332.948486,500.460175 336.202057,498.525177 339.623230,498.172913 
	C345.526978,497.565063 350.994537,496.433014 356.695923,494.337769 
	C364.152466,491.597412 372.538727,491.440857 380.483063,489.949066 
	C383.950317,489.297974 387.314301,488.095001 390.723419,487.136414 
	C393.238922,486.429077 395.746460,485.692871 398.266571,485.002594 
	C403.961395,483.442871 409.596039,481.568420 415.375244,480.433838 
	C424.270752,478.687469 433.237366,477.226898 442.227356,476.056091 
	C456.319550,474.220825 470.455017,472.715759 484.576538,471.109253 
	C486.059509,470.940521 487.572083,471.036926 489.070618,470.998993 
	C502.027832,470.670990 514.983765,470.274689 527.942566,470.034027 
	C536.380493,469.877350 544.573181,469.907471 552.822021,473.429108 
	C557.978699,475.630615 564.543823,474.702362 570.484558,474.832794 
	C573.935181,474.908569 577.396301,474.118744 580.860596,474.031097 
	C596.815857,473.627228 612.773438,473.307648 628.731445,473.031403 
	C630.802490,472.995514 632.880859,473.386414 634.955872,473.579590 
	C635.000793,474.148621 635.045654,474.717621 635.090576,475.286621 
	C625.808105,476.857788 616.528564,478.447113 607.241028,479.987854 
	C604.799011,480.392975 602.320374,480.577454 599.878967,480.985168 
	C592.955261,482.141327 592.916626,482.217468 593.087524,488.710968 
	C577.040283,497.091400 559.603088,499.901978 542.231018,503.284943 
	C536.904907,504.322144 532.206299,508.557983 527.206238,511.303406 
	C524.575500,512.747864 521.914307,514.136841 521.389465,513.934082 
	C523.026917,515.254211 524.664368,516.574280 526.301819,517.894348 
	C525.524170,518.861572 524.746582,519.828796 523.968994,520.796021 
	C524.844177,520.167175 525.719360,519.538269 527.338135,518.375122 
	C527.338135,520.310242 527.449219,521.800354 527.308044,523.266174 
	C527.156189,524.842407 526.792969,526.400940 526.478088,527.958313 
	C525.003235,535.252502 529.520630,539.840881 533.817139,544.613586 
	C534.592712,545.475159 534.623169,547.007568 534.998779,548.615112 
	C357.108185,549.000000 179.216354,549.000000 1.000000,549.000000 
	C1.000000,487.312805 1.000000,425.625061 1.000001,363.468658 
M173.949585,532.943848 
	C173.949585,532.943848 173.855164,532.831848 173.904297,532.199219 
	C173.274078,528.403442 171.500488,528.200867 164.467514,531.588623 
	C166.190735,533.462708 167.575806,536.382629 169.371078,536.661560 
	C175.193130,537.565796 181.162933,537.622131 187.081406,537.752319 
	C189.508316,537.805725 191.949432,537.213745 195.323334,536.800232 
	C194.013275,534.678955 192.658386,532.485046 190.995071,529.791748 
	C186.116623,534.538513 181.907822,532.607788 178.056427,529.934875 
	C176.657959,531.022644 175.350693,532.039429 173.949585,532.943848 
M517.684631,480.022644 
	C517.616150,480.334595 517.547668,480.646515 517.479126,480.958466 
	C521.899658,480.985992 526.321350,481.055267 530.737732,480.932434 
	C530.989929,480.925415 531.198547,479.348419 531.748413,477.315094 
	C526.705200,478.085052 522.442566,478.735840 517.684631,480.022644 
M176.388977,521.418274 
	C176.216766,522.671753 175.464813,524.563538 175.994293,525.044495 
	C177.062363,526.014526 179.244034,527.046082 180.214569,526.557861 
	C182.026337,525.646484 183.301453,523.668274 185.770233,521.140442 
	C181.683685,521.140442 179.416092,521.140442 176.388977,521.418274 
M406.083710,496.167847 
	C405.130463,496.550995 404.060669,496.788422 403.292480,497.402954 
	C403.050873,497.596191 403.543182,499.411469 403.828400,499.446838 
	C406.027740,499.719818 408.258759,499.737732 410.479950,499.834747 
	C410.521027,499.408783 410.562103,498.982819 410.603180,498.556854 
	C409.335815,497.846649 408.068481,497.136444 406.083710,496.167847 
z"/>
<path fill="#FEEEA1" opacity="1.000000" stroke="none" 
	d="
M1146.531372,1.000010 
	C1148.061279,1.332359 1149.115479,1.927778 1150.185059,1.957269 
	C1164.465576,2.351014 1178.764648,2.348722 1193.026123,3.082960 
	C1209.531006,3.932696 1226.093384,3.296614 1242.522583,6.636830 
	C1250.401123,8.238640 1258.879883,6.645450 1267.058228,7.062066 
	C1289.383667,8.199345 1311.693115,9.652719 1334.010986,10.944112 
	C1341.126343,11.355830 1348.273315,11.405373 1355.355835,12.117619 
	C1358.372559,12.420988 1361.263794,13.991986 1364.204956,15.007417 
	C1364.636475,15.156425 1365.217896,15.711712 1365.411255,15.586604 
	C1369.059448,13.225840 1372.894409,14.674886 1376.699829,14.848632 
	C1382.463013,15.111763 1388.239136,15.093506 1394.009766,15.194807 
	C1394.109863,16.060904 1394.209839,16.927002 1394.309937,17.793098 
	C1391.705078,18.528755 1389.085083,19.941479 1386.498291,19.882988 
	C1375.232544,19.628256 1363.916138,17.971724 1352.732422,18.665434 
	C1338.837402,19.527323 1325.419189,15.793612 1311.703125,16.090023 
	C1306.795410,16.196083 1301.918701,17.819166 1297.012573,17.908272 
	C1282.754517,18.167225 1268.481934,18.273220 1254.227417,17.928261 
	C1237.849976,17.531925 1221.485962,16.584909 1205.115723,15.883979 
	C1198.027344,15.580470 1190.940308,15.123150 1183.848877,15.029736 
	C1153.244385,14.626600 1122.637939,14.385480 1092.033569,13.976074 
	C1076.750366,13.771626 1061.470703,13.312646 1046.188599,13.008400 
	C1040.109619,12.887373 1034.001221,13.198041 1027.958008,12.692943 
	C1024.136719,12.373550 1020.410950,10.909700 1015.457031,9.660198 
	C1016.822021,8.046803 1017.842468,6.158624 1019.422852,5.135387 
	C1021.691223,3.666800 1024.367798,2.828813 1026.935059,1.360796 
	C1066.687622,1.000000 1106.375122,1.000000 1146.531372,1.000010 
z"/>
<path fill="#FFFFFF" opacity="1.000000" stroke="none" 
	d="
M316.963318,153.964966 
	C317.461090,157.486526 317.461090,157.486526 323.217804,159.158813 
	C306.238556,167.780334 287.657562,169.236496 269.231445,171.385452 
	C269.089874,170.838531 268.948303,170.291611 268.806732,169.744690 
	C284.037292,165.782516 299.267853,161.820343 314.498413,157.858170 
	C314.205353,157.468979 313.912323,157.079788 313.619263,156.690598 
	C314.524139,155.797226 315.429047,154.903839 316.662018,154.001129 
	C316.990112,153.991791 316.963318,153.964966 316.963318,153.964966 
z"/>
<path fill="#FFFFFF" opacity="1.000000" stroke="none" 
	d="
M246.121613,172.117401 
	C244.775787,174.100723 243.374252,176.029037 241.914536,178.037384 
	C236.782150,178.471222 231.446579,178.922226 224.772690,179.486359 
	C226.140076,176.692459 227.147751,174.633530 228.048431,172.318359 
	C227.941452,172.062119 228.062210,171.946121 228.452713,171.979980 
	C230.917633,172.970932 231.068909,178.315155 235.009537,174.906891 
	C238.254608,172.100220 241.975784,171.690933 245.959839,171.947235 
	C245.959839,171.947235 246.065903,172.062408 246.121613,172.117401 
z"/>
<path fill="#FFFFFF" opacity="1.000000" stroke="none" 
	d="
M836.572144,496.916992 
	C834.555908,496.468231 832.974304,496.066772 831.392639,495.665283 
	C831.385437,495.388245 831.378235,495.111206 831.371033,494.834167 
	C843.854980,494.834167 856.338867,494.834167 868.822815,494.834167 
	C868.847046,495.151062 868.871216,495.467957 868.895447,495.784851 
	C858.265930,496.177979 847.636353,496.571136 836.572144,496.916992 
z"/>
<path fill="#FFFFFF" opacity="1.000000" stroke="none" 
	d="
M317.000122,154.007416 
	C325.897614,149.663239 335.122467,147.979019 346.018555,150.741806 
	C336.166901,153.844894 327.053864,154.069504 317.432404,153.976990 
	C316.963318,153.964966 316.990112,153.991791 317.000122,154.007416 
z"/>
<path fill="#FFFFFF" opacity="1.000000" stroke="none" 
	d="
M711.957581,520.000244 
	C706.101990,520.436340 700.695679,520.872253 695.289368,521.308105 
	C695.263977,520.940674 695.238586,520.573242 695.213196,520.205750 
	C702.661926,519.715027 710.110657,519.224365 717.559448,518.733643 
	C717.597839,519.155762 717.636230,519.577881 717.674622,520.000000 
	C715.918701,520.000000 714.162781,520.000000 711.957581,520.000244 
z"/>
<path fill="#FEEEA1" opacity="1.000000" stroke="none" 
	d="
M929.984741,11.842223 
	C931.852905,12.423857 933.328186,12.923689 934.821167,13.429502 
	C932.267151,20.220222 926.670837,20.617867 920.173767,21.333170 
	C926.744568,22.080563 932.209900,22.702211 937.675171,23.323860 
	C937.715637,24.081755 937.756104,24.839651 937.796570,25.597548 
	C935.433899,26.064821 933.064697,26.960327 930.709778,26.924147 
	C921.256042,26.778894 911.807678,26.130114 902.355530,26.089279 
	C895.405273,26.059250 888.449341,26.994135 881.501038,26.932528 
	C874.478088,26.870262 867.457458,26.161682 860.442871,25.641388 
	C853.760132,25.145714 847.341553,24.669983 840.490051,26.499172 
	C833.345825,28.406490 825.468750,27.383783 817.983459,28.254850 
	C811.573730,29.000748 804.934937,26.855799 798.669189,30.445410 
	C795.784180,32.098190 792.037231,32.533684 788.614441,32.903053 
	C780.309265,33.799271 771.933472,34.080387 763.649231,35.114887 
	C759.201660,35.670280 754.731567,38.914410 751.195435,33.572678 
	C746.578369,38.143463 728.636292,40.757477 725.686462,38.005722 
	C726.926392,35.842991 727.975891,33.762897 729.272461,31.850327 
	C729.979248,30.807920 730.971802,29.535450 732.064880,29.252193 
	C736.774719,28.031677 740.956482,26.325146 745.310181,23.734013 
	C749.657104,21.146908 756.366760,22.497248 762.044434,22.193726 
	C764.530151,22.060850 767.048523,22.313183 769.512024,22.035400 
	C777.717468,21.110174 785.898804,19.973774 794.100403,19.011686 
	C805.417725,17.684120 816.734558,16.337622 828.071350,15.196163 
	C836.793762,14.317943 845.536072,13.545286 854.288269,13.073361 
	C875.305847,11.940079 896.329895,10.889645 917.362549,10.105963 
	C921.412781,9.955050 925.514160,11.173616 929.984741,11.842223 
z"/>
<path fill="#FEEEA2" opacity="1.000000" stroke="none" 
	d="
M1714.988281,85.015488 
	C1725.725342,83.338959 1736.463135,82.524696 1747.368286,83.978722 
	C1755.486328,85.061111 1763.708618,85.367226 1771.886230,85.994713 
	C1780.957520,86.690765 1790.034424,87.318085 1799.099243,88.088783 
	C1800.304688,88.191261 1801.453491,88.960449 1802.628418,89.420898 
	C1802.681030,90.004829 1802.733643,90.588760 1802.786133,91.172699 
	C1799.991821,91.774338 1797.163452,93.016663 1794.408936,92.870255 
	C1780.038208,92.106377 1765.680786,91.062180 1751.329468,89.972923 
	C1739.463623,89.072296 1727.612061,87.983887 1715.760376,86.909416 
	C1715.419312,86.878502 1715.149536,86.063385 1714.944336,85.291222 
	C1715.041992,84.968536 1715.005493,84.999077 1714.988281,85.015488 
z"/>
<path fill="#FEEEA1" opacity="1.000000" stroke="none" 
	d="
M991.753662,3.069814 
	C994.579834,3.046662 997.192932,3.594645 999.419861,2.901687 
	C1002.633972,1.901578 1004.121216,2.973468 1004.932373,5.796854 
	C1005.457397,7.624560 1005.796387,9.505736 1006.235291,11.435506 
	C1000.605103,14.656665 993.708130,13.592608 989.941101,8.928328 
	C987.236450,10.618188 984.741516,12.914740 981.819031,13.800142 
	C978.762146,14.726311 975.294250,14.295841 972.172119,14.450171 
	C970.627258,12.246029 969.007324,9.934821 966.714539,6.663705 
	C968.557922,6.175092 971.096985,5.207114 973.717590,4.867440 
	C979.579529,4.107620 985.481995,3.660773 991.753662,3.069814 
z"/>
<path fill="#FEEEA1" opacity="1.000000" stroke="none" 
	d="
M1431.350098,18.880569 
	C1435.789062,19.321129 1439.779297,19.697477 1443.769531,20.073824 
	C1443.785767,20.636496 1443.802002,21.199165 1443.818115,21.761837 
	C1440.112793,25.379168 1435.185791,24.012356 1430.770752,23.835028 
	C1424.184570,23.570496 1417.627441,22.618067 1411.053223,22.008873 
	C1406.299438,21.568357 1401.531738,21.268986 1396.785645,20.762232 
	C1395.898193,20.667461 1395.083740,19.888563 1393.917725,19.251759 
	C1396.727783,17.769442 1399.150879,16.491215 1401.574097,15.212989 
	C1401.581665,15.570720 1401.589355,15.928452 1401.596924,16.286182 
	C1403.314209,16.510893 1405.026245,16.867723 1406.749512,16.935284 
	C1411.715820,17.129990 1416.696411,17.059858 1421.652222,17.385914 
	C1424.753174,17.589933 1427.819458,18.321501 1431.350098,18.880569 
z"/>
<path fill="#FEEEA1" opacity="1.000000" stroke="none" 
	d="
M948.014648,25.998619 
	C945.434875,25.438478 943.285217,24.877481 941.135620,24.316483 
	C941.232422,23.574471 941.329224,22.832457 941.426086,22.090443 
	C955.378479,22.090443 969.330933,22.090443 983.551270,22.090443 
	C983.294250,22.956837 983.196533,23.748465 983.035767,23.761496 
	C977.071960,24.244778 971.581970,27.173292 965.191223,26.075703 
	C959.764709,25.143730 954.038452,25.956820 948.014648,25.998619 
z"/>
<path fill="#FEEEA1" opacity="1.000000" stroke="none" 
	d="
M256.416077,194.706512 
	C259.806580,194.866104 262.781860,195.160568 265.757111,195.455032 
	C265.684296,195.881729 265.611450,196.308426 265.538635,196.735107 
	C257.541809,198.382416 249.594635,200.402527 241.521591,201.477402 
	C238.646561,201.860214 235.466202,199.949768 232.425201,199.086151 
	C232.538315,198.334564 232.651413,197.582993 232.764511,196.831406 
	C240.509949,196.168060 248.255371,195.504715 256.416077,194.706512 
z"/>
<path fill="#FEEEA1" opacity="1.000000" stroke="none" 
	d="
M246.098724,171.646317 
	C241.975784,171.690933 238.254608,172.100220 235.009537,174.906891 
	C231.068909,178.315155 230.917633,172.970932 228.513611,171.922546 
	C228.855377,170.685699 229.252228,169.093338 230.250565,168.479996 
	C233.029984,166.772430 235.992416,165.305939 239.020081,164.085297 
	C240.360352,163.544922 242.032242,163.827057 243.553604,163.735825 
	C243.553604,165.262299 243.553604,166.788757 243.553604,167.943024 
	C244.412598,169.031921 245.325104,170.188660 246.098724,171.646317 
z"/>
<path fill="#FEEEA1" opacity="1.000000" stroke="none" 
	d="
M1456.989014,21.317347 
	C1454.975342,24.409397 1453.303467,24.709183 1447.154297,23.131523 
	C1449.888794,19.449844 1453.557251,21.541986 1456.989014,21.317347 
z"/>
<path fill="#FEEEA1" opacity="1.000000" stroke="none" 
	d="
M174.043427,533.056274 
	C175.350693,532.039429 176.657959,531.022644 178.056427,529.934875 
	C181.907822,532.607788 186.116623,534.538513 190.995071,529.791748 
	C192.658386,532.485046 194.013275,534.678955 195.323334,536.800232 
	C191.949432,537.213745 189.508316,537.805725 187.081406,537.752319 
	C181.162933,537.622131 175.193130,537.565796 169.371078,536.661560 
	C167.575806,536.382629 166.190735,533.462708 164.467514,531.588623 
	C171.500488,528.200867 173.274078,528.403442 173.653625,532.535278 
	C173.257187,533.157227 173.111420,533.443115 172.965652,533.729004 
	C173.324921,533.504761 173.684189,533.280518 174.043427,533.056274 
z"/>
<path fill="#FEEEA1" opacity="1.000000" stroke="none" 
	d="
M517.932251,479.704651 
	C522.442566,478.735840 526.705200,478.085052 531.748413,477.315094 
	C531.198547,479.348419 530.989929,480.925415 530.737732,480.932434 
	C526.321350,481.055267 521.899658,480.985992 517.479126,480.958435 
	C517.547668,480.646515 517.616150,480.334595 517.932251,479.704651 
z"/>
<path fill="#FEEEA1" opacity="1.000000" stroke="none" 
	d="
M176.768738,521.279358 
	C179.416092,521.140442 181.683685,521.140442 185.770233,521.140442 
	C183.301453,523.668274 182.026337,525.646484 180.214569,526.557861 
	C179.244034,527.046082 177.062363,526.014526 175.994293,525.044495 
	C175.464813,524.563538 176.216766,522.671753 176.768738,521.279358 
z"/>
<path fill="#FEEEA1" opacity="1.000000" stroke="none" 
	d="
M406.442413,496.297058 
	C408.068481,497.136444 409.335815,497.846649 410.603180,498.556854 
	C410.562103,498.982819 410.521027,499.408783 410.479950,499.834747 
	C408.258759,499.737732 406.027740,499.719818 403.828400,499.446838 
	C403.543182,499.411469 403.050873,497.596191 403.292480,497.402954 
	C404.060669,496.788422 405.130463,496.550995 406.442413,496.297058 
z"/>
<path fill="#FFFFFF" opacity="1.000000" stroke="none" 
	d="
M173.996521,533.000061 
	C173.684189,533.280518 173.324921,533.504761 172.965652,533.729004 
	C173.111420,533.443115 173.257187,533.157227 173.629059,532.851562 
	C173.855164,532.831848 173.949585,532.943848 173.996521,533.000061 
z"/>
</svg>