<svg id="visual" viewBox="0 0 900 600" width="900" height="600" xmlns="http://www.w3.org/2000/svg" xmlns:xlink="http://www.w3.org/1999/xlink" version="1.1"><path d="M611 600L629 575C647 550 683 500 695 450C707 400 695 350 693.5 300C692 250 701 200 708.5 150C716 100 722 50 725 25L728 0L900 0L900 25C900 50 900 100 900 150C900 200 900 250 900 300C900 350 900 400 900 450C900 500 900 550 900 575L900 600Z" fill="#e8e7e7"></path><path d="M332 600L312.5 575C293 550 254 500 264.5 450C275 400 335 350 371 300C407 250 419 200 432.5 150C446 100 461 50 468.5 25L476 0L729 0L726 25C723 50 717 100 709.5 150C702 200 693 250 694.5 300C696 350 708 400 696 450C684 500 648 550 630 575L612 600Z" fill="#dddcdc"></path><path d="M0 600L0 575C0 550 0 500 0 450C0 400 0 350 0 300C0 250 0 200 0 150C0 100 0 50 0 25L0 0L477 0L469.5 25C462 50 447 100 433.5 150C420 200 408 250 372 300C336 350 276 400 265.5 450C255 500 294 550 313.5 575L333 600Z" fill="#cecdcd"></path></svg>